<?xml version="1.0" encoding="utf-8"?>
<!-- Generator: Adobe Illustrator 18.1.1, SVG Export Plug-In . SVG Version: 6.00 Build 0)  -->
<svg version="1.1" id="Layer_1" xmlns="http://www.w3.org/2000/svg" xmlns:xlink="http://www.w3.org/1999/xlink" x="0px" y="0px"
	 viewBox="0 0 960 560" enable-background="new 0 0 960 560" xml:space="preserve">
<g>
	<g>
		<g>
			<path d="M158.9,229c2.5-7.7,5.3-15.2,8.5-22.6c1.4-3.3,2.9-6.6,4.5-9.9c0.8-1.7,5.9-9.5,5-11.1c0.9,1.7,3.5,0.2,2.6-1.5
				c-0.1-0.2-0.2-0.3-0.3-0.5c-0.2-0.4-0.8-0.8-1.3-0.7c-2.6,0.1-3.4,2.1-4.5,4.2c-2.4,4.6-4.7,9.2-6.8,13.9
				c-4,9-7.6,18.1-10.6,27.5C155.4,230,158.3,230.8,158.9,229L158.9,229z"/>
		</g>
	</g>
	<g>
		<g>
			<path d="M189.5,191.6c6.3,11.6,20.7,7.3,28.6,0.1c11-10.1,19.1-24.2,24.4-38.1c4.5-11.8,10.6-29.1,1.7-40.2
				c-9.2-11.4-26.4-13.5-39.6-9.1c-1.8,0.6-1,3.5,0.8,2.9c12-3.9,27.6-2.4,36.3,7.8c8.2,9.7,2.4,25.7-1.4,36.3
				c-4.1,11.3-10.1,22-17.8,31.3c-3.5,4.3-7.4,8.7-12.3,11.3c-6.1,3.2-14.4,2.8-18-3.8C191.2,188.3,188.6,189.9,189.5,191.6
				L189.5,191.6z"/>
		</g>
	</g>
	<g>
		<g>
			<path d="M214,96.5c9.9-14.5,20.5-28.5,31.7-41.9c1.2-1.5-0.9-3.6-2.1-2.1c-11.4,13.6-22.2,27.8-32.2,42.5
				C210.4,96.6,213,98.1,214,96.5L214,96.5z"/>
		</g>
	</g>
	<g>
		<g>
			<path d="M264.3,68.9c16.4,11.7,33.6,22.1,51.6,31.2c1.7,0.9,3.2-1.7,1.5-2.6c-18-9.1-35.2-19.5-51.6-31.2
				C264.3,65.2,262.8,67.8,264.3,68.9L264.3,68.9z"/>
		</g>
	</g>
	<g>
		<g>
			<path d="M188,251.3c18,13.6,41.2,15.6,61.9,23.1c1.8,0.7,2.6-2.2,0.8-2.9c-20.4-7.4-43.4-9.3-61.2-22.8
				C188,247.5,186.5,250.1,188,251.3L188,251.3z"/>
		</g>
	</g>
	<g>
		<g>
			<path d="M325.7,87.9c0.9-13.5,11.3-24.8,25-25.8c6.6-0.5,13.9,1.4,18.8,6c5.2,4.9,6.1,12.1,5.7,18.9c-0.1,1.9,2.9,1.9,3,0
				c0.4-7.6-0.8-15.6-6.6-21.1c-5.5-5.2-13.5-7.4-20.9-6.9c-15.4,1-27,13.6-28,28.8C322.6,89.8,325.6,89.8,325.7,87.9L325.7,87.9z"
				/>
		</g>
	</g>
	<g>
		<g>
			<path d="M314.8,305.7c-8.5,10.1-22.7,13.4-34.4,6.8c-5.6-3.2-10.4-8.4-12.2-14.6c-2.3-7.7,1.2-14.7,5.9-20.5
				c1.2-1.5-0.9-3.6-2.1-2.1c-4.6,5.6-8.3,12.3-7.4,19.8c0.9,7.5,5.8,14.2,11.9,18.5c12.9,9.1,30.5,6.2,40.5-5.7
				C318.1,306.4,316,304.2,314.8,305.7L314.8,305.7z"/>
		</g>
	</g>
</g>
<g>
	<g>
		<g>
			<path fill="#C1272D" d="M156.9,236c2.5-7.7,5.3-15.2,8.5-22.6c1.4-3.3,2.9-6.6,4.5-9.9c0.8-1.7,5.9-9.5,5-11.1
				c0.9,1.7,3.5,0.2,2.6-1.5c-0.1-0.2-0.2-0.3-0.3-0.5c-0.2-0.4-0.8-0.8-1.3-0.7c-2.6,0.1-3.4,2.1-4.5,4.2
				c-2.4,4.6-4.7,9.2-6.8,13.9c-4,9-7.6,18.1-10.6,27.5C153.4,237,156.3,237.8,156.9,236L156.9,236z"/>
		</g>
	</g>
	<g>
		<g>
			<path fill="#C1272D" d="M187.5,198.6c6.3,11.6,20.7,7.3,28.6,0.1c11-10.1,19.1-24.2,24.4-38.1c4.5-11.8,10.6-29.1,1.7-40.2
				c-9.2-11.4-26.4-13.5-39.6-9.1c-1.8,0.6-1,3.5,0.8,2.9c12-3.9,27.6-2.4,36.3,7.8c8.2,9.7,2.4,25.7-1.4,36.3
				c-4.1,11.3-10.1,22-17.8,31.3c-3.5,4.3-7.4,8.7-12.3,11.3c-6.1,3.2-14.4,2.8-18-3.8C189.2,195.3,186.6,196.9,187.5,198.6
				L187.5,198.6z"/>
		</g>
	</g>
	<g>
		<g>
			<path fill="#C1272D" d="M212,103.5c9.9-14.5,20.5-28.5,31.7-41.9c1.2-1.5-0.9-3.6-2.1-2.1c-11.4,13.6-22.2,27.8-32.2,42.5
				C208.4,103.6,211,105.1,212,103.5L212,103.5z"/>
		</g>
	</g>
	<g>
		<g>
			<path fill="#C1272D" d="M262.3,75.9c16.4,11.7,33.6,22.1,51.6,31.2c1.7,0.9,3.2-1.7,1.5-2.6c-18-9.1-35.2-19.5-51.6-31.2
				C262.3,72.2,260.8,74.8,262.3,75.9L262.3,75.9z"/>
		</g>
	</g>
	<g>
		<g>
			<path fill="#C1272D" d="M186,258.3c18,13.6,41.2,15.6,61.9,23.1c1.8,0.7,2.6-2.2,0.8-2.9c-20.4-7.4-43.4-9.3-61.2-22.8
				C186,254.5,184.5,257.1,186,258.3L186,258.3z"/>
		</g>
	</g>
	<g>
		<g>
			<path fill="#C1272D" d="M323.7,94.9c0.9-13.5,11.3-24.8,25-25.8c6.6-0.5,13.9,1.4,18.8,6c5.2,4.9,6.1,12.1,5.7,18.9
				c-0.1,1.9,2.9,1.9,3,0c0.4-7.6-0.8-15.6-6.6-21.1c-5.5-5.2-13.5-7.4-20.9-6.9c-15.4,1-27,13.6-28,28.8
				C320.6,96.8,323.6,96.8,323.7,94.9L323.7,94.9z"/>
		</g>
	</g>
	<g>
		<g>
			<path fill="#C1272D" d="M312.8,312.7c-8.5,10.1-22.7,13.4-34.4,6.8c-5.6-3.2-10.4-8.4-12.2-14.6c-2.3-7.7,1.2-14.7,5.9-20.5
				c1.2-1.5-0.9-3.6-2.1-2.1c-4.6,5.6-8.3,12.3-7.4,19.8c0.9,7.5,5.8,14.2,11.9,18.5c12.9,9.1,30.5,6.2,40.5-5.7
				C316.1,313.4,314,311.2,312.8,312.7L312.8,312.7z"/>
		</g>
	</g>
</g>
<g>
	<g>
		<g>
			<path fill="#662D91" d="M157.9,222c2.5-7.7,5.3-15.2,8.5-22.6c1.4-3.3,2.9-6.6,4.5-9.9c0.8-1.7,5.9-9.5,5-11.1
				c0.9,1.7,3.5,0.2,2.6-1.5c-0.1-0.2-0.2-0.3-0.3-0.5c-0.2-0.4-0.8-0.8-1.3-0.7c-2.6,0.1-3.4,2.1-4.5,4.2
				c-2.4,4.6-4.7,9.2-6.8,13.9c-4,9-7.6,18.1-10.6,27.5C154.4,223,157.3,223.8,157.9,222L157.9,222z"/>
		</g>
	</g>
	<g>
		<g>
			<path fill="#662D91" d="M188.5,184.6c6.3,11.6,20.7,7.3,28.6,0.1c11-10.1,19.1-24.2,24.4-38.1c4.5-11.8,10.6-29.1,1.7-40.2
				c-9.2-11.4-26.4-13.5-39.6-9.1c-1.8,0.6-1,3.5,0.8,2.9c12-3.9,27.6-2.4,36.3,7.8c8.2,9.7,2.4,25.7-1.4,36.3
				c-4.1,11.3-10.1,22-17.8,31.3c-3.5,4.3-7.4,8.7-12.3,11.3c-6.1,3.2-14.4,2.8-18-3.8C190.2,181.3,187.6,182.9,188.5,184.6
				L188.5,184.6z"/>
		</g>
	</g>
	<g>
		<g>
			<path fill="#662D91" d="M213,89.5c9.9-14.5,20.5-28.5,31.7-41.9c1.2-1.5-0.9-3.6-2.1-2.1c-11.4,13.6-22.2,27.8-32.2,42.5
				C209.4,89.6,212,91.1,213,89.5L213,89.5z"/>
		</g>
	</g>
	<g>
		<g>
			<path fill="#662D91" d="M263.3,61.9C279.7,73.6,297,84,314.9,93.1c1.7,0.9,3.2-1.7,1.5-2.6c-18-9.1-35.2-19.5-51.6-31.2
				C263.3,58.2,261.8,60.8,263.3,61.9L263.3,61.9z"/>
		</g>
	</g>
	<g>
		<g>
			<path fill="#662D91" d="M187,244.3c18,13.6,41.2,15.6,61.9,23.1c1.8,0.7,2.6-2.2,0.8-2.9c-20.4-7.4-43.4-9.3-61.2-22.8
				C187,240.5,185.5,243.1,187,244.3L187,244.3z"/>
		</g>
	</g>
	<g>
		<g>
			<path fill="#662D91" d="M324.7,80.9c0.9-13.5,11.3-24.8,25-25.8c6.6-0.5,13.9,1.4,18.8,6c5.2,4.9,6.1,12.1,5.7,18.9
				c-0.1,1.9,2.9,1.9,3,0c0.4-7.6-0.8-15.6-6.6-21.1c-5.5-5.2-13.5-7.4-20.9-6.9c-15.4,1-27,13.6-28,28.8
				C321.6,82.8,324.6,82.8,324.7,80.9L324.7,80.9z"/>
		</g>
	</g>
	<g>
		<g>
			<path fill="#662D91" d="M313.8,298.7c-8.5,10.1-22.7,13.4-34.4,6.8c-5.6-3.2-10.4-8.4-12.2-14.6c-2.3-7.7,1.2-14.7,5.9-20.5
				c1.2-1.5-0.9-3.6-2.1-2.1c-4.6,5.6-8.3,12.3-7.4,19.8c0.9,7.5,5.8,14.2,11.9,18.5c12.9,9.1,30.5,6.2,40.5-5.7
				C317.1,299.4,315,297.2,313.8,298.7L313.8,298.7z"/>
		</g>
	</g>
</g>
<g>
	<g>
		<g>
			<path fill="#006837" d="M151.9,238c2.5-7.7,5.3-15.2,8.5-22.6c1.4-3.3,2.9-6.6,4.5-9.9c0.8-1.7,5.9-9.5,5-11.1
				c0.9,1.7,3.5,0.2,2.6-1.5c-0.1-0.2-0.2-0.3-0.3-0.5c-0.2-0.4-0.8-0.8-1.3-0.7c-2.6,0.1-3.4,2.1-4.5,4.2
				c-2.4,4.6-4.7,9.2-6.8,13.9c-4,9-7.6,18.1-10.6,27.5C148.4,239,151.3,239.8,151.9,238L151.9,238z"/>
		</g>
	</g>
	<g>
		<g>
			<path fill="#006837" d="M182.5,200.6c6.3,11.6,20.7,7.3,28.6,0.1c11-10.1,19.1-24.2,24.4-38.1c4.5-11.8,10.6-29.1,1.7-40.2
				c-9.2-11.4-26.4-13.5-39.6-9.1c-1.8,0.6-1,3.5,0.8,2.9c12-3.9,27.6-2.4,36.3,7.8c8.2,9.7,2.4,25.7-1.4,36.3
				c-4.1,11.3-10.1,22-17.8,31.3c-3.5,4.3-7.4,8.7-12.3,11.3c-6.1,3.2-14.4,2.8-18-3.8C184.2,197.3,181.6,198.9,182.5,200.6
				L182.5,200.6z"/>
		</g>
	</g>
	<g>
		<g>
			<path fill="#006837" d="M207,105.5c9.9-14.5,20.5-28.5,31.7-41.9c1.2-1.5-0.9-3.6-2.1-2.1c-11.4,13.6-22.2,27.8-32.2,42.5
				C203.4,105.6,206,107.1,207,105.5L207,105.5z"/>
		</g>
	</g>
	<g>
		<g>
			<path fill="#006837" d="M257.3,77.9c16.4,11.7,33.6,22.1,51.6,31.2c1.7,0.9,3.2-1.7,1.5-2.6c-18-9.1-35.2-19.5-51.6-31.2
				C257.3,74.2,255.8,76.8,257.3,77.9L257.3,77.9z"/>
		</g>
	</g>
	<g>
		<g>
			<path fill="#006837" d="M181,260.3c18,13.6,41.2,15.6,61.9,23.1c1.8,0.7,2.6-2.2,0.8-2.9c-20.4-7.4-43.4-9.3-61.2-22.8
				C181,256.5,179.5,259.1,181,260.3L181,260.3z"/>
		</g>
	</g>
	<g>
		<g>
			<path fill="#006837" d="M318.7,96.9c0.9-13.5,11.3-24.8,25-25.8c6.6-0.5,13.9,1.4,18.8,6c5.2,4.9,6.1,12.1,5.7,18.9
				c-0.1,1.9,2.9,1.9,3,0c0.4-7.6-0.8-15.6-6.6-21.1c-5.5-5.2-13.5-7.4-20.9-6.9c-15.4,1-27,13.6-28,28.8
				C315.6,98.8,318.6,98.8,318.7,96.9L318.7,96.9z"/>
		</g>
	</g>
	<g>
		<g>
			<path fill="#006837" d="M307.8,314.7c-8.5,10.1-22.7,13.4-34.4,6.8c-5.6-3.2-10.4-8.4-12.2-14.6c-2.3-7.7,1.2-14.7,5.9-20.5
				c1.2-1.5-0.9-3.6-2.1-2.1c-4.6,5.6-8.3,12.3-7.4,19.8c0.9,7.5,5.8,14.2,11.9,18.5c12.9,9.1,30.5,6.2,40.5-5.7
				C311.1,315.4,309,313.2,307.8,314.7L307.8,314.7z"/>
		</g>
	</g>
</g>
<g>
	<path d="M302.8,226.1c-1.3,0.2-2.6,0.4-3.8,0.7c-1.2,0.3-2.4,0.6-3.6,0.9c-0.5,0.2-1.1,0.3-1.6,0.4c-0.5,0.1-1.1,0.2-1.7,0.4
		c-1.6-0.4-3.1-0.6-4.5-0.8c-1.4-0.2-2.7-0.3-3.9-0.3l-2-0.5c-1.1-0.3-1.8-0.6-2.4-0.9c-0.5-0.2-1-0.4-1.5-0.5
		c-0.5-0.1-1.1-0.2-1.7-0.3c-0.7-0.1-1.6-0.2-2.8-0.4c-1.5,0.6-2.9,0.9-4.3,0.9c-1,0-2-0.2-3-0.5c-1.1-0.3-2.1-0.9-3.2-1.8
		c-1.1-0.9-2.1-2.2-3-3.8c-1-1.6-1.8-3.7-2.5-6.3c0.3-2,0.6-3.8,0.9-5.3c0.4-1.5,0.7-2.7,1.1-3.6l1.1-1.2c1.6-0.6,3.4-0.9,5.4-0.9
		c1.9,0,3.8,0.3,5.7,0.9c1.8,0.6,3.7,1.3,5.5,2c0.8,0.4,1.4,0.6,1.7,0.8c0.3,0.2,0.6,0.3,0.8,0.4c0.2,0.1,0.4,0.1,0.7,0.1
		c0.3,0,0.9,0,1.6,0c0.4,0,0.9,0,1.3-0.1c0.4,0,0.8-0.1,1.3-0.2l1.6,0.1c0.6,0.4,1.4,0.5,2.2,0.5c0.6,0,1.3-0.1,1.9-0.3
		c0.7-0.2,1.3-0.3,2-0.5c0.7-0.3,1.3-0.4,1.8-0.5c0.5-0.1,1-0.2,1.4-0.4l1.3-1.2c0.9-0.3,1.6-0.7,2-1.2c0.5-0.4,0.9-0.9,1.3-1.5
		c0.4-0.6,0.7-1.2,1-1.8c0.3-0.6,0.7-1.3,1.3-2c0.4-0.5,0.9-1.1,1.3-1.6c0.4-0.5,0.8-1,1.3-1.4v-1.3c1.4-3.2,2.6-6.5,3.7-9.9
		c1.1-3.3,2-6.7,2.8-10c0.8-3.3,1.5-6.6,2-9.7c0.6-3.2,1.1-6,1.5-8.6c-0.3,0-0.5,0-0.8-0.1c-0.3,0-0.5-0.1-0.7-0.1
		c-2.6,0-4.8,0-6.5,0.1c-1.7,0.1-3.2,0.2-4.6,0.4c-1.4,0.2-2.9,0.4-4.4,0.7c-1.5,0.3-3.5,0.7-5.9,1.1l-2.2,0.4
		c-1.7,0.8-3.3,1.5-4.8,2.2c-1.5,0.7-3.1,1-4.8,1c-2.6,0-4.9-1.1-6.9-3.2c-2-1.2-3.2-3-3.4-5.3c-0.4-0.8-0.6-1.5-0.5-2.2
		c-0.4-1.2-0.5-2.3-0.6-3.4c0-1-0.1-2-0.1-2.8l0.1-2.2h2c0.5-0.5,0.9-0.9,1.1-1.2c0.2-0.3,0.4-0.6,0.5-0.9l0.4-1.3l1.3-0.1
		c1.8-0.3,3.7-0.6,5.7-0.9c1.9-0.4,3.9-0.7,5.9-1.2c2-0.4,3.8-0.7,5.2-0.9c1.4-0.3,2.8-0.5,4.1-0.6s2.7-0.2,4.1-0.3
		c1.4,0,3-0.1,4.9-0.1c0.7,0,1.3,0,1.9,0.1c0.6,0,1.2,0.1,1.8,0.1c0.3-0.4,0.7-0.7,1.1-0.8c0.4-0.1,0.6-0.1,0.8-0.1
		c0.6,0.1,1.1,0.2,1.4,0.3c0.3,0.1,0.5,0.2,0.7,0.3c3-0.5,5.7-0.9,8.2-1c2.5-0.1,4.8-0.2,6.8-0.2c1,0,1.9,0,2.9,0c1,0,1.9,0,2.8,0.1
		h5h3.6c0.4-0.1,0.9-0.1,1.3-0.1c0.4,0,0.8,0,1.3,0c0.9,0,1.6,0,2,0c0.5,0,0.9,0,1.3,0.1c0.4,0,0.7,0.1,1.1,0.1
		c0.3,0,0.8,0.1,1.4,0.2c1.5,0.3,2.9,0.5,4.1,0.7c1.2,0.2,2.5,0.3,3.7,0.3l2.5-0.1l0.4,1.6l1.2,1.7c0.3,0.5,0.6,1,1.1,1.4
		c0.4,0.4,0.9,0.9,1.4,1.3c1.1,1,2.1,2.2,3.1,3.6c1,1.4,1.4,3.5,1.1,6.3l-1.2,1.6c-0.4,0.2-0.7,0.4-1,0.7c-0.3,0.3-0.6,0.6-1,0.9
		l-1.3,1.2c-1.1,0.1-2.1,0.2-2.9,0.2c-0.8,0-1.7,0.1-2.6,0.1c-1.6,0-3.2,0-4.8-0.1c-1.6-0.1-3.3-0.2-5.1-0.3c-1-0.1-1.7-0.1-2.2-0.1
		s-1,0-1.4,0c-0.4,0-0.9,0-1.5,0.1c-0.6,0-1.3,0.1-2.2,0.1c-0.9,0-1.5,0-1.9,0s-0.9,0-1.6,0.1c-0.2,2.8-0.5,5.2-1,7.3
		c-0.5,2.1-1.1,4.2-1.8,6.5c-1.7,8.6-3.7,16.7-6.1,24.4c-2.4,7.6-5.1,14.5-8.1,20.7c-2.8,3-5.5,5.6-8,8c-2.5,2.3-5.4,4-8.6,4.9
		H302.8z"/>
	<path d="M378.1,219.3c0.4,2.6,0.3,4.7-0.5,6.2c-0.7,1.5-1.8,2.6-3.2,3.4c-1.4,0.7-2.9,1.2-4.7,1.3c-1.8,0.1-3.4,0-5-0.3
		c-0.9-1.2-1.7-2.8-2.4-4.6c-0.7-1.8-1.4-3.8-2-5.7c-0.6-2-1.2-3.9-1.6-5.9c-0.5-1.9-0.9-3.6-1.3-5.1c0.4-1.1,0.7-2.3,0.9-3.6
		c0.1-1.4,0.2-2.7,0.3-4.1c0-1.4,0.1-2.8,0.1-4.3c0-1.4,0.2-2.8,0.3-4.1c0.6-3.7,1.5-7.2,2.7-10.5c1.2-3.3,2.1-6.8,2.8-10.4
		c0.2-0.8,0.1-1.5-0.2-2.2c-0.3-0.7-0.4-1.4-0.2-2c0.1-0.4,0.3-0.6,0.8-0.7c0.4-0.1,0.7-0.4,0.8-0.9c0.3-1,0.3-1.8,0.2-2.4
		c-0.1-0.6,0-1.4,0.5-2.2c0.4-0.7,1-1.7,1.6-3.1c0.7-1.4,0.9-2.8,0.7-4.3c0.8-0.5,1.5-1.1,2.2-1.8c0.7-0.7,1.4-1.3,2.2-1.9
		c0.7-0.6,1.6-1.1,2.5-1.5c0.9-0.4,2-0.7,3.4-0.7c0.7,0.9,1.2,1.8,1.4,2.9c0.2,1.1,0.4,2.1,0.7,3.2c0.2,1.1,0.5,2,1,3
		c0.4,0.9,1.2,1.6,2.2,2.2c0,0.7,0,1.6,0,2.6c0,1.1,0,2.1,0.1,3.1c0.1,1,0.3,1.9,0.6,2.8c0.3,0.8,0.8,1.4,1.5,1.6
		c-1.6,4.2-3.1,8.4-4.4,12.5c-1.4,4.1-2.5,8.3-3.4,12.4c-0.9,4.2-1.4,8.4-1.6,12.6C377,210.7,377.3,215,378.1,219.3z"/>
	<path d="M486.7,204.8c-2.1,3.8-4.9,6.7-8.3,8.8c-3.4,2.1-7.2,3.8-11.3,5.1c-4.1,1.4-8.5,2.6-13,3.6c-4.5,1.1-8.9,2.4-13.1,4.1
		c-1.2,0-2.3,0-3.2,0.1c-0.9,0.1-1.8,0.2-2.6,0.3c-0.8,0.1-1.6,0.3-2.4,0.4s-1.7,0.2-2.6,0.3c-0.4-0.1-0.6,0-0.7,0.2
		c-0.1,0.2-0.2,0.4-0.4,0.6c-1.5,0.3-2.8,0.4-4,0.4s-2.2,0-3,0c-1.1,0-2.1,0.2-3.2,0.5c-1.1,0.3-2.1,0.4-3,0.3
		c-6.6-0.4-11.7-2.7-15.5-7c-3.7-4.3-5.8-10.4-6.3-18.1c0.1-0.4,0-0.7-0.2-0.8c-0.2-0.1-0.4-0.2-0.6-0.4c0-0.9,0.1-1.6,0.3-2.2
		c0.2-0.6,0.2-1.4,0.1-2.4c2.3-4.8,4.9-9.3,7.8-13.5c2.9-4.2,6.4-7.8,10.4-11c0.6-0.5,1.1-1.1,1.6-1.6c0.4-0.5,0.9-1.1,1.3-1.6
		c0.4-0.5,0.9-1,1.4-1.4s1.2-0.7,2-0.9c1.8-2.1,4-4,6.6-5.8c2.5-1.8,5.2-3.4,8-5.1c2.8-1.6,5.6-3.2,8.4-4.9c2.8-1.6,5.3-3.4,7.6-5.5
		c1,0.4,1.7,0.6,2.1,0.4c0.4-0.2,0.9-0.2,1.4,0c0.6,1.3,1.5,2.2,2.6,2.8c1.1,0.5,2.2,1.1,3.3,1.6c1.1,0.6,2.1,1.3,3.1,2
		c1,0.8,1.7,1.8,2.2,3.2c-0.5,0-0.8,0.2-0.7,0.6c0,0.4,0.2,0.8,0.3,1.2c0.2,0.4,0.2,0.8,0.2,1.2c0,0.4-0.4,0.6-1,0.6
		c0.1,0.4,0.4,0.7,0.9,0.7c0.5,0,0.7,0.3,0.7,0.7c0,0.4-0.1,0.8-0.3,1.1c-0.2,0.3-0.2,0.7-0.1,1.3c-1.8,1.1-3.7,2.2-5.9,3.3
		c-2.2,1.1-4.4,2.2-6.7,3.4c-2.3,1.2-4.7,2.5-7.2,3.8c-2.5,1.4-4.9,2.9-7.3,4.7c-2.4,1.8-4.8,3.7-7.2,5.9c-2.5,2.2-4.8,4.4-7.1,6.8
		c-2.3,2.4-4.4,4.8-6.5,7.3c-2,2.5-3.7,5-5.1,7.4c0.2,0.4,0.4,0.8,0.6,1c0.2,0.2,0.4,0.5,0.6,1c2.8,0.2,5.4,0.2,7.8-0.1
		c2.4-0.2,4.9-0.1,7.3,0.5c0.3-0.2,0.4-0.4,0.5-0.8c0.1-0.4,0.3-0.6,0.7-0.8c5-0.5,9.7-1.3,14-2.4c4.3-1.1,8.7-2.3,13.2-3.5
		c-0.7-0.3-1.3-0.5-1.9-0.7c-0.6-0.2-1.1-0.4-1.6-0.6c-0.4-0.4-0.4-0.8,0.1-1.1c0.5-0.3,0.9-0.6,1.3-1c-1.2-0.7-2.2-1.6-3-2.6
		c-0.7-1.1-1.2-2.5-1.4-4.2c0.5-0.4,0.8-1,0.8-1.6c0-0.6-0.3-1.1-0.8-1.4c-0.4-0.1-0.6-0.1-0.7,0c-0.1,0.1-0.2,0.2-0.2,0.4
		c0,0.2-0.1,0.3-0.2,0.5c-0.1,0.1-0.3,0.1-0.7-0.1c0.1-0.8,0.3-1.4,0.6-2c0.3-0.5,0.5-1.1,0.7-1.8l9.1-6.1c1,0.7,2.2,1.5,3.6,2.3
		c1.4,0.8,2.9,1.7,4.4,2.5c1.5,0.8,3.1,1.7,4.7,2.5c1.6,0.8,3.1,1.6,4.5,2.4c1.2,0.5,2.3,1.2,3.3,2.1c1,0.9,1.9,1.8,2.8,2.7
		c0.9,0.9,1.8,1.8,2.7,2.7c0.9,0.9,2,1.6,3.2,2.2c-0.2,1.1-0.1,2.1,0.1,2.8C486.7,202.8,486.8,203.7,486.7,204.8z"/>
	<path d="M546.3,192.9c-0.1,0.4-0.2,0.8-0.3,1.1c-0.1,0.3-0.2,0.6-0.3,0.9s-0.1,0.6-0.1,1c0,0.4,0,0.9,0,1.5
		c-2.6,4.7-6,8.6-9.9,11.7c-4,3.2-8.4,6-13.2,8.4c-4.8,2.4-9.8,4.6-15,6.6s-10.2,4.1-15.1,6.4c-2.1-0.5-3.7-1.4-4.8-2.6
		c-1.1-1.2-1.9-2.7-2.5-4.3c-0.6-1.6-1-3.4-1.2-5.4c-0.2-2-0.4-4-0.6-6.1c0.3-1,0.6-1.8,1.1-2.4c0.5-0.7,0.7-1.6,0.7-2.8
		c0.7-2.3,1.4-4.5,2.1-6.7c0.7-2.2,1.1-4.4,1.3-6.7c0.3-0.7,0.7-1.2,1.4-1.4c0.4-4.2,0.5-8.5,0.1-12.8c-0.4-4.3-1.1-8.4-2.2-12.2
		c0.1-0.9,0.2-1.5,0.3-1.9c0.1-0.4,0.1-0.7-0.1-0.9c-0.1-0.7,0.2-1.1,0.7-1.1c0.6,0,1.2,0,1.8,0c0-1.3-0.2-2.6-0.7-4
		c-0.5-1.3-0.9-2.8-1.4-4.5c0.6-1.3,1-2.6,1.2-3.9c0.2-1.3,0.6-2.4,1.2-3.4c4.7,1.5,9.3,3.3,13.6,5.4c4.3,2.1,8.6,3.6,12.8,4.6
		c3.2,2.3,6.4,4.5,9.7,6.8c3.3,2.2,6.4,4.7,9.1,7.4c2.7,2.7,5,5.7,6.8,9.2C545,184.1,546,188.2,546.3,192.9z M515.1,200.2
		c1.8-0.7,3.7-1.4,5.5-2.2c1.8-0.8,3.5-1.7,5-2.7c1.5-1,2.9-2.2,4.2-3.5c1.2-1.3,2.2-2.9,3-4.7c-0.5-1.1-1.2-2-2.1-2.8
		c-0.9-0.8-1.8-1.6-2.6-2.4c-0.9-0.7-1.7-1.5-2.6-2.3c-0.8-0.8-1.5-1.8-2-2.9c-1.1-0.2-2.2-0.5-3-1c-0.9-0.5-1.7-1-2.6-1.4
		c-0.8-0.5-1.7-0.9-2.6-1.4c-0.9-0.4-2-0.7-3.2-0.8c-1.9-1-3.7-1.7-5.2-2.1c-1.5-0.4-2.7-1-3.5-1.7c-0.6,0-1.1,0.1-1.4,0.4
		c0.9,3.3,1.5,6.5,2,9.4c0.4,2.9,0.7,5.9,0.7,8.8c0,2.9-0.1,6-0.5,9c-0.4,3.1-0.8,6.4-1.4,10c0.9-0.1,1.7-0.3,2.4-0.6
		c0.7-0.3,1.5-0.6,2.2-1c0.7-0.3,1.5-0.7,2.4-1c0.8-0.3,1.8-0.5,3-0.6c0.3-0.5,0.6-1,1.1-1.3C514.2,201,514.6,200.6,515.1,200.2z"/>
	<path d="M569.6,214.8c-1,3.5-1.8,6.2-2.6,8c-0.7,1.8-1.9,3.7-3.4,5.6c-1.1-0.2-1.9,0-2.4,0.4c-0.4,0.4-0.9,0.8-1.4,1.2
		c-0.8,0.2-1.4,0.2-1.7,0c-0.4-0.2-0.7-0.4-0.9-0.6c-0.3-0.2-0.6-0.4-1-0.7c-0.4-0.2-1-0.3-1.8-0.3c-0.2-0.7-0.4-1.4-0.6-2
		c-0.2-0.6-0.8-0.8-1.8-0.7c0.2-0.7,0.2-1.3,0.1-1.8c-0.1-0.5-0.2-0.9-0.3-1.3c-0.1-0.4-0.2-0.8-0.3-1.2c-0.1-0.4,0-0.9,0.1-1.5
		c-0.4,0-0.8-0.3-1.1-0.9c-0.3-0.6-0.6-1.2-0.9-1.8c0.3-1.6,0.5-3.1,0.8-4.5c0.3-1.4,0.6-2.7,1-4c0.4-1.2,0.7-2.5,1-3.7
		c0.3-1.2,0.1-2.5-0.4-3.8c0.3,0.3,0.6,0.2,0.8-0.2c0.2-0.4,0.3-0.9,0.4-1.6c0.1-0.7,0.1-1.3,0.1-2s0-1.2-0.1-1.6
		c0.9-2.3,1.6-4.6,2.2-7c0.6-2.4,1.1-4.8,1.6-7.2c0.5-2.4,1-4.7,1.5-7c0.5-2.3,1.2-4.4,2.1-6.3c1-0.2,2-0.1,3.2,0.3
		c1.2,0.4,1.9,0.9,2.2,1.5c2.3-1.8,4.3-3.9,6.1-6.4c1.8-2.5,3.6-4.9,5.4-7.3c1.8-2.4,3.9-4.5,6.1-6.3c2.2-1.8,5.1-2.9,8.5-3.3
		c1.8,1.3,3.7,2.7,5.9,4c2.2,1.4,3.9,3.1,5.3,5.3c0.7,0.4,1.3,0.7,1.8,1.1c0.5,0.4,1.1,0.8,1.8,1.3v1.6c1.1,1,1.9,2.1,2.6,3.4
		c0.7,1.3,1.3,2.6,1.8,4.1c0.5,1.4,1.1,2.9,1.6,4.3c0.5,1.4,1.1,2.8,1.8,4.1c-0.2,0.4-0.3,0.8-0.3,1.1c0,0.3,0.1,0.6,0.2,1
		c0.1,0.4,0.2,0.7,0.3,1.1c0.1,0.4,0.1,0.8,0,1.4c-0.3,3.9-1.5,7-3.8,9.4c-2.2,2.4-4.9,4.3-8.1,5.9c-3.2,1.5-6.5,2.8-10.1,3.9
		c-3.6,1.1-6.9,2.2-9.7,3.4c0,0.4,0.2,0.5,0.5,0.5c0.3,0,0.4,0.2,0.3,0.7c2.1,1.3,3.8,2.4,5,3.2c1.2,0.8,2.4,1.4,3.5,2
		c1.1,0.5,2.3,1,3.6,1.4c1.3,0.4,3.1,0.9,5.3,1.4c2.3,0.5,4.1,0.9,5.3,1.3c1.3,0.3,2.4,0.6,3.5,0.8c1.1,0.2,2.1,0.4,3.2,0.5
		c1.1,0.1,2.7,0.3,4.7,0.5c0.8,0.8,1.5,1.7,2,2.8c0.6,1.1,0.9,2.2,1.1,3.3c0.2,1.1,0.2,2.2,0.1,3.2c-0.1,1-0.4,1.8-0.9,2.4
		c0.1,0.3,0.3,0.4,0.6,0.3c0.3,0,0.6,0,1,0.1c-0.5,0.4-1,0.8-1.3,1.3c-0.4,0.5-0.7,1.1-1.1,1.6c-0.4,0.5-0.7,1-1.2,1.4
		c-0.4,0.4-1.1,0.6-1.8,0.7c-2.7,1.1-6.1,1.1-10.3,0.2c-4.1-0.9-9.4-2.6-15.7-5.1c-3.2-1.2-5.7-2.3-7.7-3.2c-2-0.9-3.7-1.8-5.1-2.8
		c-1.4-0.9-2.8-1.9-4-3C572.7,217.5,571.3,216.3,569.6,214.8z M588.4,169.6c-1,1.4-2,2.7-3.2,3.8c-1.2,1.1-2.3,2.3-3.4,3.5
		c-1.1,1.2-2.1,2.5-3,4c-0.9,1.4-1.5,3.1-1.8,5.1c3.1-0.4,6.3-1.2,9.6-2.6c3.3-1.4,6.5-2.7,9.5-3.9c-0.4-2.7-1.3-4.9-2.8-6.6
		C591.7,171.2,590.1,170.1,588.4,169.6z"/>
	<path d="M691.1,217.4c-0.5,1.5-1.3,3-2.3,4.5c-1,1.5-2.2,2.9-3.6,4.1c-1.4,1.2-2.9,2.2-4.5,3c-1.7,0.8-3.4,1.2-5.3,1.3
		c-1.1-0.3-1.9-0.5-2.3-0.9c-0.4-0.3-0.8-0.6-1.3-0.9c-0.3-0.2-0.5-0.3-0.7-0.5c-0.2-0.1-0.4-0.2-0.6-0.3l-1.6-0.7l0.5-1.7
		c0.2-0.7,0.1-1.3-0.1-1.6c-0.3-0.4-0.8-0.9-1.6-1.6c-0.3-0.3-0.5-0.5-0.8-0.8c-0.3-0.3-0.5-0.5-0.7-0.8l-2.2-2.5l3.6-0.9
		c2.2-0.6,3.7-1.4,4.4-2.4c0.7-1,1-2.6,0.9-4.9c-1.8-0.3-3.2-0.4-4.4-0.1c-1.2,0.3-2.4,0.6-3.6,0.9c-1.6,0.4-3.2,0.8-4.8,1.1
		c-1.6,0.3-3.4,0.5-5.3,0.5c-0.7,0-1.4,0-2-0.1c-0.6,0-1.3-0.1-2-0.2l-1.3-0.3c-0.2-1-0.4-1.5-0.5-1.6c-0.2-0.1-0.4-0.3-0.5-0.5
		c-0.4-0.4-0.9-1-1.4-1.8c-0.5-0.7-0.6-1.7-0.3-2.8c-0.4-0.8-0.7-1.6-0.8-2.4c-0.5,1.1-0.9,2.2-1.2,3.3l-0.5,1.3l-1.3,0.3
		c-0.2,0.1-0.3,0.3-0.4,0.6c-0.1,0.3-0.1,0.5-0.1,0.7l-0.7,2.2c-0.2,0.2-0.4,0.3-0.5,0.5c-0.2,0.1-0.4,0.3-0.5,0.5
		c-0.2,0.8-0.4,1.6-0.7,2.4c-0.3,0.8-0.5,1.5-0.8,2.2c-0.4,1.1-0.8,2.3-1.1,3.4c-0.3,1.1-0.4,2.2-0.3,3.2l-0.5,1.4
		c-0.4,0.5-0.9,0.9-1.4,1.3c-0.5,0.3-1.1,0.6-1.6,0.9c-0.2,0.2-0.4,0.3-0.7,0.5c-0.3,0.1-0.5,0.2-0.7,0.3l-0.4,1.4l-1.6,0.3
		c-1,0.2-1.6,0.3-2,0.4c-0.4,0.1-0.9,0.1-1.4,0.1l-1.3-0.1c-1-0.8-1.7-1.4-2.2-1.9c-0.5-0.5-1.1-0.9-1.8-1.4
		c-0.8-1.1-1.2-1.8-1.3-2.4c-0.1-0.5-0.2-1-0.3-1.4c-0.2-0.5-0.3-1-0.3-1.3c0-0.3-0.2-0.6-0.3-0.8l-1.7-1.6l1.4-1.2l0.1-2.2
		c1.8-4.5,3.6-8.8,5.6-12.9c2-4.1,4-8.3,6.1-12.6c0.7-1.4,1.4-2.8,2-4.2c0.7-1.4,1.3-2.8,2-4.2c-0.1-0.3-0.1-0.6-0.1-0.9
		c0-0.4,0.1-0.7,0.3-1.2c1-1.5,1.8-2.8,2.4-4c0.6-1.2,1.2-2.4,1.8-3.6c0.7-1.5,1.4-2.9,2.2-4.3c0.7-1.4,1.7-2.9,2.8-4.3l2.1-0.9
		c0.3-0.1,0.6-0.2,0.9-0.3c0.4-0.1,0.7-0.2,1.2-0.2l2,0.3c2.5-1.1,4.6-2.7,6.5-4.8c1.8-2.1,3.7-4.5,5.7-7.4l1.3-1.8l1.7,1.1
		c0.4,0.3,1.1,0.5,1.8,0.7c0.8,0.2,1.6,0.5,2.5,0.7c1.6,0.4,3.1,0.7,4.5,1.2c1.4,0.4,2.5,1.1,3.4,2c0.5,1.4,0.8,2.5,0.9,3.2
		c0.1,0.7,0.2,1.4,0.4,2.1c0.3,1.5,0.5,3,0.7,4.5c0.2,1.5,0.4,3.2,0.5,5c0.4,1.5,0.8,3,1.1,4.4c0.3,1.4,0.6,2.9,0.9,4.4
		c0.4,2.1,0.9,4.1,1.3,6.1c0.4,2,1,3.8,1.7,5.6c0.7,0,1.1,0,1.3,0.1c0.4-0.2,0.9-0.3,1.4-0.4c0.5-0.1,1-0.2,1.6-0.3l1.4-0.1l0.5,1.3
		c0.1,0.4,0.5,0.9,1.3,1.3c1.1,0.1,2,0.3,2.5,0.7c0.5,0.4,1,0.8,1.4,1.3c0.3,0.4,0.7,0.6,1.1,0.8l2,0.8l-1.1,2
		c-0.9,1.6-2.1,3.1-3.8,4.5c-1.6,1.4-3.4,2.7-5.5,3.6c0.1,0.5,0.2,1,0.2,1.5c0,0.5,0.2,1,0.3,1.5c0.3,1.5,0.5,3,0.7,4.6
		c0.2,1.6,0.2,3.2,0,4.9L691.1,217.4z M653,194.6c2.6-0.2,5-0.4,7.2-0.6c2.2-0.2,4.5-0.6,7.2-1.1c-0.6-2.6-1.3-5.4-2-8.2
		c-0.7-2.9-1.4-5.7-2.2-8.5l-0.8,1.3c-1.8,1.8-3.4,3.9-5.1,6.2c-1.6,2.3-3,4.4-4.1,6.5c-0.5,0.8-1.1,1.6-1.6,2.4
		c-0.5,0.8-1,1.6-1.4,2.4c0.5-0.1,1-0.1,1.5-0.1C652.1,194.8,652.6,194.7,653,194.6z"/>
	<path d="M773.9,230.2c-3.1-1.4-5.5-3.5-7.3-6.2c-1.8-2.7-3.6-5.8-5.3-9.1c-0.3-0.5-0.5-1.1-0.8-1.6s-0.5-1-0.8-1.4l-1.8-3.4
		l-1.1-2.1l-1.6,1.4l-2.4,2.1l-1.3,1.3c-2.3,2.1-4.6,4.2-6.9,6.3c-2.3,2.1-4.8,3.9-7.4,5.5c-2.6,1.6-5.3,2.9-8.2,4
		c-2.9,1-6,1.6-9.3,1.6l-2.9-1.4c-1.7-0.9-3.1-1.7-4.2-2.4c-1.1-0.7-2.5-1.8-4-3.3c-0.4-0.8-0.8-1.5-1.1-2.2c-0.3-0.7-0.6-1.4-1-2.1
		c-1-1.8-1.8-3.3-2.4-4.7c-0.6-1.4-1.2-3-1.8-4.7c0.3-1.2,0.7-3.3,1.2-6.3c0.5-2.9,1.2-6.2,1.9-9.7c0.7-3.5,1.5-7,2.4-10.6
		c0.8-3.6,1.7-6.7,2.6-9.3c0.8-2.3,1.7-4.7,2.7-7.2c1-2.5,2.1-4.9,3.3-7c1.2-2.2,2.5-4,3.9-5.5c1.4-1.5,2.9-2.4,4.5-2.7
		c0.4,0.6,0.9,1.1,1.4,1.3c0.5,0.3,1,0.5,1.4,0.7c1.2,1.8,2.4,3.3,3.6,4.5c1.2,1.2,2.6,2.5,4.1,3.7c-0.4,2.2-1.1,4.6-1.9,7.3
		c-0.8,2.7-1.7,5.4-2.6,8c-0.9,2.7-1.8,5.3-2.7,7.8c-0.9,2.5-1.6,4.7-2.1,6.6c-0.5,1.5-1,3.2-1.3,5c-0.8,3.3-1.5,7.7-2.2,13.3
		c1.1-0.3,2.2-0.8,3.4-1.7c1.2-0.9,2.4-1.8,3.6-2.8c1.3-1.1,2.6-2.2,4-3.6c1.7-1.7,3.1-3.2,4.2-4.6c1.1-1.4,2.2-2.9,3.2-4.3
		c1-1.5,2-3.1,3.1-4.9c1.1-1.8,2.3-3.9,3.8-6.4c1.3-2.1,2.7-4.4,4.1-6.8c1.4-2.4,2.9-4.7,4.3-7c1.4-2.2,2.9-4.3,4.3-6.1
		c1.4-1.8,2.7-3.3,3.8-4.3c0.7,0.9,1.6,1.7,2.7,2.5c1.1,0.8,2.3,1.4,3.5,1.8c0.5,0.8,1,1.5,1.5,2.2c0.5,0.7,0.9,1.3,1.4,1.8
		c0.5,0.8,1,1.5,1.5,2.2c0.5,0.7,0.9,1.4,1.4,2.1c-0.1,0.6-0.2,1.4-0.4,2.4c-0.2,1-0.4,2-0.6,3.2c-0.2,1.1-0.5,2.3-0.7,3.5
		s-0.5,2.3-0.8,3.4c-0.7,3.3-1.2,5.8-1.6,7.5c-0.4,1.7-0.6,3-0.7,4c-0.1,1-0.2,1.8-0.3,2.4c0,0.7-0.1,1.6-0.1,2.7
		c-0.1,0.9,0,1.8,0.1,2.6c0.1,0.8,0.3,1.6,0.5,2.5c0.3,0.9,0.6,1.7,1.1,2.4l5.3-4.1c1.5-1.1,2.9-2.7,4.3-4.7c1.4-2,2.7-4.3,4-6.9
		c1.3-2.6,2.5-5.4,3.8-8.5c1.2-3.1,2.5-6.2,3.7-9.4c1.8-4.7,3.7-9.2,5.6-13.6c1.9-4.4,3.7-7.8,5.5-10.1c1.9,1.2,3.6,2.5,5.1,3.8
		c1.4,1.3,2.7,2.7,3.8,4.1c1.1,1.5,1.9,3.2,2.6,5.1c0.7,1.9,1.1,4.2,1.4,6.9c-1.6,3.1-3.1,6.2-4.5,9.5c-1.4,3.3-2.8,6.5-4.1,9.7
		c-1.8,4.2-3.6,8.4-5.5,12.6c-1.9,4.2-4,8.2-6.3,12.1c-2.3,3.8-4.8,7.3-7.6,10.5c-2.8,3.2-6.1,5.9-9.7,8.1c-1-0.3-1.8-0.4-2.5-0.4
		C776.1,229,774.9,229.4,773.9,230.2z"/>
</g>
<g>
	<path fill="none" stroke="#662D91" d="M300.7,230.3c-1.3,0.2-2.6,0.4-3.8,0.7c-1.2,0.3-2.4,0.6-3.6,0.9c-0.5,0.2-1.1,0.3-1.6,0.4
		c-0.5,0.1-1.1,0.2-1.7,0.4c-1.6-0.4-3.1-0.6-4.5-0.8c-1.4-0.2-2.7-0.3-3.9-0.3l-2-0.5c-1.1-0.3-1.8-0.6-2.4-0.9
		c-0.5-0.2-1-0.4-1.5-0.5c-0.5-0.1-1.1-0.2-1.7-0.3c-0.7-0.1-1.6-0.2-2.8-0.4c-1.5,0.6-2.9,0.9-4.3,0.9c-1,0-2-0.2-3-0.5
		c-1.1-0.3-2.1-0.9-3.2-1.8c-1.1-0.9-2.1-2.2-3-3.8c-1-1.6-1.8-3.7-2.5-6.3c0.3-2,0.6-3.8,0.9-5.3c0.4-1.5,0.7-2.7,1.1-3.6l1.1-1.2
		c1.6-0.6,3.4-0.9,5.4-0.9c1.9,0,3.8,0.3,5.7,0.9c1.8,0.6,3.7,1.3,5.5,2c0.8,0.4,1.4,0.6,1.7,0.8c0.3,0.2,0.6,0.3,0.8,0.4
		c0.2,0.1,0.4,0.1,0.7,0.1c0.3,0,0.9,0,1.6,0c0.4,0,0.9,0,1.3-0.1c0.4,0,0.8-0.1,1.3-0.2l1.6,0.1c0.6,0.4,1.4,0.5,2.2,0.5
		c0.6,0,1.3-0.1,1.9-0.3c0.7-0.2,1.3-0.3,2-0.5c0.7-0.3,1.3-0.4,1.8-0.5c0.5-0.1,1-0.2,1.4-0.4l1.3-1.2c0.9-0.3,1.6-0.7,2-1.2
		c0.5-0.4,0.9-0.9,1.3-1.5c0.4-0.6,0.7-1.2,1-1.8c0.3-0.6,0.7-1.3,1.3-2c0.4-0.5,0.9-1.1,1.3-1.6c0.4-0.5,0.8-1,1.3-1.4v-1.3
		c1.4-3.2,2.6-6.5,3.7-9.9c1.1-3.3,2-6.7,2.8-10c0.8-3.3,1.5-6.6,2-9.7c0.6-3.2,1.1-6,1.5-8.6c-0.3,0-0.5,0-0.8-0.1
		c-0.3,0-0.5-0.1-0.7-0.1c-2.6,0-4.8,0-6.5,0.1c-1.7,0.1-3.2,0.2-4.6,0.4c-1.4,0.2-2.9,0.4-4.4,0.7c-1.5,0.3-3.5,0.7-5.9,1.1
		l-2.2,0.4c-1.7,0.8-3.3,1.5-4.8,2.2c-1.5,0.7-3.1,1-4.8,1c-2.6,0-4.9-1.1-6.9-3.2c-2-1.2-3.2-3-3.4-5.3c-0.4-0.8-0.6-1.5-0.5-2.2
		c-0.4-1.2-0.5-2.3-0.6-3.4c0-1-0.1-2-0.1-2.8l0.1-2.2h2c0.5-0.5,0.9-0.9,1.1-1.2c0.2-0.3,0.4-0.6,0.5-0.9l0.4-1.3l1.3-0.1
		c1.8-0.3,3.7-0.6,5.7-0.9c1.9-0.4,3.9-0.7,5.9-1.2c2-0.4,3.8-0.7,5.2-0.9c1.4-0.3,2.8-0.5,4.1-0.6s2.7-0.2,4.1-0.3
		c1.4,0,3-0.1,4.9-0.1c0.7,0,1.3,0,1.9,0.1c0.6,0,1.2,0.1,1.8,0.1c0.3-0.4,0.7-0.7,1.1-0.8c0.4-0.1,0.6-0.1,0.8-0.1
		c0.6,0.1,1.1,0.2,1.4,0.3c0.3,0.1,0.5,0.2,0.7,0.3c3-0.5,5.7-0.9,8.2-1c2.5-0.1,4.8-0.2,6.8-0.2c1,0,1.9,0,2.9,0c1,0,1.9,0,2.8,0.1
		h5h3.6c0.4-0.1,0.9-0.1,1.3-0.1c0.4,0,0.8,0,1.3,0c0.9,0,1.6,0,2,0c0.5,0,0.9,0,1.3,0.1c0.4,0,0.7,0.1,1.1,0.1
		c0.3,0,0.8,0.1,1.4,0.2c1.5,0.3,2.9,0.5,4.1,0.7c1.2,0.2,2.5,0.3,3.7,0.3l2.5-0.1l0.4,1.6l1.2,1.7c0.3,0.5,0.6,1,1.1,1.4
		c0.4,0.4,0.9,0.9,1.4,1.3c1.1,1,2.1,2.2,3.1,3.6c1,1.4,1.4,3.5,1.1,6.3l-1.2,1.6c-0.4,0.2-0.7,0.4-1,0.7c-0.3,0.3-0.6,0.6-1,0.9
		l-1.3,1.2c-1.1,0.1-2.1,0.2-2.9,0.2c-0.8,0-1.7,0.1-2.6,0.1c-1.6,0-3.2,0-4.8-0.1c-1.6-0.1-3.3-0.2-5.1-0.3c-1-0.1-1.7-0.1-2.2-0.1
		s-1,0-1.4,0c-0.4,0-0.9,0-1.5,0.1c-0.6,0-1.3,0.1-2.2,0.1c-0.9,0-1.5,0-1.9,0s-0.9,0-1.6,0.1c-0.2,2.8-0.5,5.2-1,7.3
		c-0.5,2.1-1.1,4.2-1.8,6.5c-1.7,8.6-3.7,16.7-6.1,24.4c-2.4,7.6-5.1,14.5-8.1,20.7c-2.8,3-5.5,5.6-8,8c-2.5,2.3-5.4,4-8.6,4.9
		H300.7z"/>
	<path fill="none" stroke="#662D91" d="M375.9,223.5c0.4,2.6,0.3,4.7-0.5,6.2c-0.7,1.5-1.8,2.6-3.2,3.4c-1.4,0.7-2.9,1.2-4.7,1.3
		c-1.8,0.1-3.4,0-5-0.3c-0.9-1.2-1.7-2.8-2.4-4.6c-0.7-1.8-1.4-3.8-2-5.7c-0.6-2-1.2-3.9-1.6-5.9c-0.5-1.9-0.9-3.6-1.3-5.1
		c0.4-1.1,0.7-2.3,0.9-3.6c0.1-1.4,0.2-2.7,0.3-4.1c0-1.4,0.1-2.8,0.1-4.3c0-1.4,0.2-2.8,0.3-4.1c0.6-3.7,1.5-7.2,2.7-10.5
		c1.2-3.3,2.1-6.8,2.8-10.4c0.2-0.8,0.1-1.5-0.2-2.2c-0.3-0.7-0.4-1.4-0.2-2c0.1-0.4,0.3-0.6,0.8-0.7c0.4-0.1,0.7-0.4,0.8-0.9
		c0.3-1,0.3-1.8,0.2-2.4c-0.1-0.6,0-1.4,0.5-2.2c0.4-0.7,1-1.7,1.6-3.1c0.7-1.4,0.9-2.8,0.7-4.3c0.8-0.5,1.5-1.1,2.2-1.8
		c0.7-0.7,1.4-1.3,2.2-1.9c0.7-0.6,1.6-1.1,2.5-1.5c0.9-0.4,2-0.7,3.4-0.7c0.7,0.9,1.2,1.8,1.4,2.9c0.2,1.1,0.4,2.1,0.7,3.2
		c0.2,1.1,0.5,2,1,3c0.4,0.9,1.2,1.6,2.2,2.2c0,0.7,0,1.6,0,2.6c0,1.1,0,2.1,0.1,3.1c0.1,1,0.3,1.9,0.6,2.8c0.3,0.8,0.8,1.4,1.5,1.6
		c-1.6,4.2-3.1,8.4-4.4,12.5c-1.4,4.1-2.5,8.3-3.4,12.4c-0.9,4.2-1.4,8.4-1.6,12.6C374.8,214.9,375.1,219.2,375.9,223.5z"/>
	<path fill="none" stroke="#662D91" d="M484.6,209c-2.1,3.8-4.9,6.7-8.3,8.8c-3.4,2.1-7.2,3.8-11.3,5.1c-4.1,1.4-8.5,2.6-13,3.6
		c-4.5,1.1-8.9,2.4-13.1,4.1c-1.2,0-2.3,0-3.2,0.1c-0.9,0.1-1.8,0.2-2.6,0.3c-0.8,0.1-1.6,0.3-2.4,0.4s-1.7,0.2-2.6,0.3
		c-0.4-0.1-0.6,0-0.7,0.2c-0.1,0.2-0.2,0.4-0.4,0.6c-1.5,0.3-2.8,0.4-4,0.4s-2.2,0-3,0c-1.1,0-2.1,0.2-3.2,0.5
		c-1.1,0.3-2.1,0.4-3,0.3c-6.6-0.4-11.7-2.7-15.5-7c-3.7-4.3-5.8-10.4-6.3-18.1c0.1-0.4,0-0.7-0.2-0.8c-0.2-0.1-0.4-0.2-0.6-0.4
		c0-0.9,0.1-1.6,0.3-2.2c0.2-0.6,0.2-1.4,0.1-2.4c2.3-4.8,4.9-9.3,7.8-13.5c2.9-4.2,6.4-7.8,10.4-11c0.6-0.5,1.1-1.1,1.6-1.6
		c0.4-0.5,0.9-1.1,1.3-1.6c0.4-0.5,0.9-1,1.4-1.4s1.2-0.7,2-0.9c1.8-2.1,4-4,6.6-5.8c2.5-1.8,5.2-3.4,8-5.1c2.8-1.6,5.6-3.2,8.4-4.9
		c2.8-1.6,5.3-3.4,7.6-5.5c1,0.4,1.7,0.6,2.1,0.4c0.4-0.2,0.9-0.2,1.4,0c0.6,1.3,1.5,2.2,2.6,2.8c1.1,0.5,2.2,1.1,3.3,1.6
		c1.1,0.6,2.1,1.3,3.1,2c1,0.8,1.7,1.8,2.2,3.2c-0.5,0-0.8,0.2-0.7,0.6c0,0.4,0.2,0.8,0.3,1.2c0.2,0.4,0.2,0.8,0.2,1.2
		c0,0.4-0.4,0.6-1,0.6c0.1,0.4,0.4,0.7,0.9,0.7c0.5,0,0.7,0.3,0.7,0.7c0,0.4-0.1,0.8-0.3,1.1c-0.2,0.3-0.2,0.7-0.1,1.3
		c-1.8,1.1-3.7,2.2-5.9,3.3c-2.2,1.1-4.4,2.2-6.7,3.4c-2.3,1.2-4.7,2.5-7.2,3.8c-2.5,1.4-4.9,2.9-7.3,4.7c-2.4,1.8-4.8,3.7-7.2,5.9
		c-2.5,2.2-4.8,4.4-7.1,6.8c-2.3,2.4-4.4,4.8-6.5,7.3c-2,2.5-3.7,5-5.1,7.4c0.2,0.4,0.4,0.8,0.6,1c0.2,0.2,0.4,0.5,0.6,1
		c2.8,0.2,5.4,0.2,7.8-0.1c2.4-0.2,4.9-0.1,7.3,0.5c0.3-0.2,0.4-0.4,0.5-0.8c0.1-0.4,0.3-0.6,0.7-0.8c5-0.5,9.7-1.3,14-2.4
		c4.3-1.1,8.7-2.3,13.2-3.5c-0.7-0.3-1.3-0.5-1.9-0.7c-0.6-0.2-1.1-0.4-1.6-0.6c-0.4-0.4-0.4-0.8,0.1-1.1c0.5-0.3,0.9-0.6,1.3-1
		c-1.2-0.7-2.2-1.6-3-2.6c-0.7-1.1-1.2-2.5-1.4-4.2c0.5-0.4,0.8-1,0.8-1.6c0-0.6-0.3-1.1-0.8-1.4c-0.4-0.1-0.6-0.1-0.7,0
		c-0.1,0.1-0.2,0.2-0.2,0.4c0,0.2-0.1,0.3-0.2,0.5c-0.1,0.1-0.3,0.1-0.7-0.1c0.1-0.8,0.3-1.4,0.6-2c0.3-0.5,0.5-1.1,0.7-1.8l9.1-6.1
		c1,0.7,2.2,1.5,3.6,2.3c1.4,0.8,2.9,1.7,4.4,2.5c1.5,0.8,3.1,1.7,4.7,2.5c1.6,0.8,3.1,1.6,4.5,2.4c1.2,0.5,2.3,1.2,3.3,2.1
		c1,0.9,1.9,1.8,2.8,2.7c0.9,0.9,1.8,1.8,2.7,2.7c0.9,0.9,2,1.6,3.2,2.2c-0.2,1.1-0.1,2.1,0.1,2.8C484.6,207,484.7,207.9,484.6,209z
		"/>
	<path fill="none" stroke="#662D91" d="M544.1,197.1c-0.1,0.4-0.2,0.8-0.3,1.1c-0.1,0.3-0.2,0.6-0.3,0.9c-0.1,0.3-0.1,0.6-0.1,1
		c0,0.4,0,0.9,0,1.5c-2.6,4.7-6,8.6-9.9,11.7c-4,3.2-8.4,6-13.2,8.4c-4.8,2.4-9.8,4.6-15,6.6c-5.2,2-10.2,4.1-15.1,6.4
		c-2.1-0.5-3.7-1.4-4.8-2.6c-1.1-1.2-1.9-2.7-2.5-4.3c-0.6-1.6-1-3.4-1.2-5.4c-0.2-2-0.4-4-0.6-6.1c0.3-1,0.6-1.8,1.1-2.4
		c0.5-0.7,0.7-1.6,0.7-2.8c0.7-2.3,1.4-4.5,2.1-6.7c0.7-2.2,1.1-4.4,1.3-6.7c0.3-0.7,0.7-1.2,1.4-1.4c0.4-4.2,0.5-8.5,0.1-12.8
		c-0.4-4.3-1.1-8.4-2.2-12.2c0.1-0.9,0.2-1.5,0.3-1.9c0.1-0.4,0.1-0.7-0.1-0.9c-0.1-0.7,0.2-1.1,0.7-1.1c0.6,0,1.2,0,1.8,0
		c0-1.3-0.2-2.6-0.7-4c-0.5-1.3-0.9-2.8-1.4-4.5c0.6-1.3,1-2.6,1.2-3.9c0.2-1.3,0.6-2.4,1.2-3.4c4.7,1.5,9.3,3.3,13.6,5.4
		c4.3,2.1,8.6,3.6,12.8,4.6c3.2,2.3,6.4,4.5,9.7,6.8c3.3,2.2,6.4,4.7,9.1,7.4c2.7,2.7,5,5.7,6.8,9.2
		C542.8,188.3,543.9,192.4,544.1,197.1z M512.9,204.4c1.8-0.7,3.7-1.4,5.5-2.2c1.8-0.8,3.5-1.7,5-2.7c1.5-1,2.9-2.2,4.1-3.5
		c1.2-1.3,2.2-2.9,3-4.7c-0.5-1.1-1.2-2-2.1-2.8c-0.9-0.8-1.8-1.6-2.6-2.4c-0.9-0.7-1.7-1.5-2.6-2.3c-0.8-0.8-1.5-1.8-2-2.9
		c-1.1-0.2-2.2-0.5-3-1c-0.9-0.5-1.7-1-2.6-1.4c-0.8-0.5-1.7-0.9-2.6-1.4c-0.9-0.4-2-0.7-3.2-0.8c-1.9-1-3.7-1.7-5.2-2.1
		c-1.5-0.4-2.7-1-3.5-1.7c-0.6,0-1.1,0.1-1.4,0.4c0.9,3.3,1.5,6.5,2,9.4c0.4,2.9,0.7,5.9,0.7,8.8c0,2.9-0.1,6-0.5,9
		c-0.4,3.1-0.8,6.4-1.4,10c0.9-0.1,1.7-0.3,2.4-0.6c0.7-0.3,1.5-0.6,2.2-1c0.7-0.3,1.5-0.7,2.4-1c0.8-0.3,1.8-0.5,3-0.6
		c0.3-0.5,0.6-1,1.1-1.3C512,205.2,512.5,204.8,512.9,204.4z"/>
	<path fill="none" stroke="#662D91" d="M567.5,219c-1,3.5-1.8,6.2-2.6,8c-0.7,1.8-1.9,3.7-3.4,5.6c-1.1-0.2-1.9,0-2.4,0.4
		c-0.4,0.4-0.9,0.8-1.4,1.2c-0.8,0.2-1.4,0.2-1.7,0c-0.4-0.2-0.7-0.4-0.9-0.6c-0.3-0.2-0.6-0.4-1-0.7c-0.4-0.2-1-0.3-1.8-0.3
		c-0.2-0.7-0.4-1.4-0.6-2c-0.2-0.6-0.8-0.8-1.8-0.7c0.2-0.7,0.2-1.3,0.1-1.8c-0.1-0.5-0.2-0.9-0.3-1.3c-0.1-0.4-0.2-0.8-0.3-1.2
		c-0.1-0.4,0-0.9,0.1-1.5c-0.4,0-0.8-0.3-1.1-0.9c-0.3-0.6-0.6-1.2-0.9-1.8c0.3-1.6,0.5-3.1,0.8-4.5c0.3-1.4,0.6-2.7,1-4
		c0.4-1.2,0.7-2.5,1-3.7c0.3-1.2,0.1-2.5-0.4-3.8c0.3,0.3,0.6,0.2,0.8-0.2c0.2-0.4,0.3-0.9,0.4-1.6c0.1-0.7,0.1-1.3,0.1-2
		s0-1.2-0.1-1.6c0.9-2.3,1.6-4.6,2.2-7c0.6-2.4,1.1-4.8,1.6-7.2c0.5-2.4,1-4.7,1.5-7c0.5-2.3,1.2-4.4,2.1-6.3c1-0.2,2-0.1,3.2,0.3
		c1.2,0.4,1.9,0.9,2.2,1.5c2.3-1.8,4.3-3.9,6.1-6.4c1.8-2.5,3.6-4.9,5.4-7.3c1.8-2.4,3.9-4.5,6.1-6.3c2.2-1.8,5.1-2.9,8.5-3.3
		c1.8,1.3,3.7,2.7,5.9,4c2.2,1.4,3.9,3.1,5.3,5.3c0.7,0.4,1.3,0.7,1.8,1.1c0.5,0.4,1.1,0.8,1.8,1.3v1.6c1.1,1,1.9,2.1,2.6,3.4
		c0.7,1.3,1.3,2.6,1.8,4.1c0.5,1.4,1.1,2.9,1.6,4.3c0.5,1.4,1.1,2.8,1.8,4.1c-0.2,0.4-0.3,0.8-0.3,1.1c0,0.3,0.1,0.6,0.2,1
		c0.1,0.4,0.2,0.7,0.3,1.1c0.1,0.4,0.1,0.8,0,1.4c-0.3,3.9-1.5,7-3.8,9.4c-2.2,2.4-4.9,4.3-8.1,5.9c-3.2,1.5-6.5,2.8-10.1,3.9
		c-3.6,1.1-6.9,2.2-9.7,3.4c0,0.4,0.2,0.5,0.5,0.5c0.3,0,0.4,0.2,0.3,0.7c2.1,1.3,3.8,2.4,5,3.2c1.2,0.8,2.4,1.4,3.5,2
		c1.1,0.5,2.3,1,3.6,1.4c1.3,0.4,3.1,0.9,5.3,1.4c2.3,0.5,4.1,0.9,5.3,1.3c1.3,0.3,2.4,0.6,3.5,0.8c1.1,0.2,2.1,0.4,3.2,0.5
		c1.1,0.1,2.7,0.3,4.7,0.5c0.8,0.8,1.5,1.7,2,2.8c0.6,1.1,0.9,2.2,1.1,3.3c0.2,1.1,0.2,2.2,0.1,3.2c-0.1,1-0.4,1.8-0.9,2.4
		c0.1,0.3,0.3,0.4,0.6,0.3c0.3,0,0.6,0,1,0.1c-0.5,0.4-1,0.8-1.3,1.3c-0.4,0.5-0.7,1.1-1.1,1.6c-0.4,0.5-0.7,1-1.2,1.4
		c-0.4,0.4-1.1,0.6-1.8,0.7c-2.7,1.1-6.1,1.1-10.3,0.2c-4.1-0.9-9.4-2.6-15.7-5.1c-3.2-1.2-5.7-2.3-7.7-3.2c-2-0.9-3.7-1.8-5.1-2.8
		c-1.4-0.9-2.8-1.9-4-3C570.5,221.7,569.1,220.5,567.5,219z M586.3,173.8c-1,1.4-2,2.7-3.2,3.8c-1.2,1.1-2.3,2.3-3.4,3.5
		c-1.1,1.2-2.1,2.5-3,4c-0.9,1.4-1.5,3.1-1.8,5.1c3.1-0.4,6.3-1.2,9.6-2.6c3.3-1.4,6.5-2.7,9.5-3.9c-0.4-2.7-1.3-4.9-2.8-6.6
		C589.6,175.4,588,174.3,586.3,173.8z"/>
	<path fill="none" stroke="#662D91" d="M688.9,221.6c-0.5,1.5-1.3,3-2.3,4.5c-1,1.5-2.2,2.9-3.6,4.1c-1.4,1.2-2.9,2.2-4.5,3
		c-1.7,0.8-3.4,1.2-5.3,1.3c-1.1-0.3-1.9-0.5-2.3-0.9c-0.4-0.3-0.8-0.6-1.3-0.9c-0.3-0.2-0.5-0.3-0.7-0.5c-0.2-0.1-0.4-0.2-0.6-0.3
		l-1.6-0.7l0.5-1.7c0.2-0.7,0.1-1.3-0.1-1.6c-0.3-0.4-0.8-0.9-1.6-1.6c-0.3-0.3-0.5-0.5-0.8-0.8c-0.3-0.3-0.5-0.5-0.7-0.8l-2.2-2.5
		l3.6-0.9c2.2-0.6,3.7-1.4,4.4-2.4c0.7-1,1-2.6,0.9-4.9c-1.8-0.3-3.2-0.4-4.4-0.1c-1.2,0.3-2.4,0.6-3.6,0.9
		c-1.6,0.4-3.2,0.8-4.8,1.1c-1.6,0.3-3.4,0.5-5.3,0.5c-0.7,0-1.4,0-2-0.1c-0.6,0-1.3-0.1-2-0.2l-1.3-0.3c-0.2-1-0.4-1.5-0.5-1.6
		c-0.2-0.1-0.4-0.3-0.5-0.5c-0.4-0.4-0.9-1-1.4-1.8c-0.5-0.7-0.6-1.7-0.3-2.8c-0.4-0.8-0.7-1.6-0.8-2.4c-0.5,1.1-0.9,2.2-1.2,3.3
		l-0.5,1.3l-1.3,0.3c-0.2,0.1-0.3,0.3-0.4,0.6c-0.1,0.3-0.1,0.5-0.1,0.7l-0.7,2.2c-0.2,0.2-0.4,0.3-0.5,0.5
		c-0.2,0.1-0.4,0.3-0.5,0.5c-0.2,0.8-0.4,1.6-0.7,2.4c-0.3,0.8-0.5,1.5-0.8,2.2c-0.4,1.1-0.8,2.3-1.1,3.4c-0.3,1.1-0.4,2.2-0.3,3.2
		l-0.5,1.4c-0.4,0.5-0.9,0.9-1.4,1.3c-0.5,0.3-1.1,0.6-1.6,0.9c-0.2,0.2-0.4,0.3-0.7,0.5c-0.3,0.1-0.5,0.2-0.7,0.3l-0.4,1.4
		l-1.6,0.3c-1,0.2-1.6,0.3-2,0.4c-0.4,0.1-0.9,0.1-1.4,0.1l-1.3-0.1c-1-0.8-1.7-1.4-2.2-1.9c-0.5-0.5-1.1-0.9-1.8-1.4
		c-0.8-1.1-1.2-1.8-1.3-2.4c-0.1-0.5-0.2-1-0.3-1.4c-0.2-0.5-0.3-1-0.3-1.3c0-0.3-0.2-0.6-0.3-0.8l-1.7-1.6l1.4-1.2l0.1-2.2
		c1.8-4.5,3.6-8.8,5.6-12.9c2-4.1,4-8.3,6.1-12.6c0.7-1.4,1.4-2.8,2-4.2c0.7-1.4,1.3-2.8,2-4.2c-0.1-0.3-0.1-0.6-0.1-0.9
		c0-0.4,0.1-0.7,0.3-1.2c1-1.5,1.8-2.8,2.4-4c0.6-1.2,1.2-2.4,1.8-3.6c0.7-1.5,1.4-2.9,2.2-4.3c0.7-1.4,1.7-2.9,2.8-4.3l2.1-0.9
		c0.3-0.1,0.6-0.2,0.9-0.3c0.4-0.1,0.7-0.2,1.2-0.2l2,0.3c2.5-1.1,4.6-2.7,6.5-4.8c1.8-2.1,3.7-4.5,5.7-7.4l1.3-1.8l1.7,1.1
		c0.4,0.3,1.1,0.5,1.8,0.7c0.8,0.2,1.6,0.5,2.5,0.7c1.6,0.4,3.1,0.7,4.5,1.2c1.4,0.4,2.5,1.1,3.4,2c0.5,1.4,0.8,2.5,0.9,3.2
		c0.1,0.7,0.2,1.4,0.4,2.1c0.3,1.5,0.5,3,0.7,4.5c0.2,1.5,0.4,3.2,0.5,5c0.4,1.5,0.8,3,1.1,4.4c0.3,1.4,0.6,2.9,0.9,4.4
		c0.4,2.1,0.9,4.1,1.3,6.1c0.4,2,1,3.8,1.7,5.6c0.7,0,1.1,0,1.3,0.1c0.4-0.2,0.9-0.3,1.4-0.4c0.5-0.1,1-0.2,1.6-0.3l1.4-0.1l0.5,1.3
		c0.1,0.4,0.5,0.9,1.3,1.3c1.1,0.1,2,0.3,2.5,0.7c0.5,0.4,1,0.8,1.4,1.3c0.3,0.4,0.7,0.6,1.1,0.8l2,0.8l-1.1,2
		c-0.9,1.6-2.1,3.1-3.8,4.5c-1.6,1.4-3.4,2.7-5.5,3.6c0.1,0.5,0.2,1,0.2,1.5c0,0.5,0.2,1,0.3,1.5c0.3,1.5,0.5,3,0.7,4.6
		c0.2,1.6,0.2,3.2,0,4.9L688.9,221.6z M650.8,198.8c2.6-0.2,5-0.4,7.2-0.6c2.2-0.2,4.5-0.6,7.2-1.1c-0.6-2.6-1.3-5.4-2-8.2
		c-0.7-2.9-1.4-5.7-2.2-8.5l-0.8,1.3c-1.8,1.8-3.4,3.9-5.1,6.2c-1.6,2.3-3,4.4-4.1,6.5c-0.5,0.8-1.1,1.6-1.6,2.4
		c-0.5,0.8-1,1.6-1.4,2.4c0.5-0.1,1-0.1,1.5-0.1C649.9,199,650.4,198.9,650.8,198.8z"/>
	<path fill="none" stroke="#662D91" d="M771.8,234.4c-3.1-1.4-5.5-3.5-7.3-6.2c-1.8-2.7-3.6-5.8-5.3-9.1c-0.3-0.5-0.5-1.1-0.8-1.6
		s-0.5-1-0.8-1.4l-1.8-3.4l-1.1-2.1l-1.6,1.4l-2.4,2.1l-1.3,1.3c-2.3,2.1-4.6,4.2-6.9,6.3c-2.3,2.1-4.8,3.9-7.4,5.5
		c-2.6,1.6-5.3,2.9-8.2,4c-2.9,1-6,1.6-9.3,1.6l-2.9-1.4c-1.7-0.9-3.1-1.7-4.2-2.4c-1.1-0.7-2.5-1.8-4-3.3c-0.4-0.8-0.8-1.5-1.1-2.2
		c-0.3-0.7-0.6-1.4-1-2.1c-1-1.8-1.8-3.3-2.4-4.7c-0.6-1.4-1.2-3-1.8-4.7c0.3-1.2,0.7-3.3,1.2-6.3c0.5-2.9,1.2-6.2,1.9-9.7
		c0.7-3.5,1.5-7,2.4-10.6c0.8-3.6,1.7-6.7,2.6-9.3c0.8-2.3,1.7-4.7,2.7-7.2c1-2.5,2.1-4.9,3.3-7c1.2-2.2,2.5-4,3.9-5.5
		c1.4-1.5,2.9-2.4,4.5-2.7c0.4,0.6,0.9,1.1,1.4,1.3c0.5,0.3,1,0.5,1.4,0.7c1.2,1.8,2.4,3.3,3.6,4.5c1.2,1.2,2.6,2.5,4.1,3.7
		c-0.4,2.2-1.1,4.6-1.9,7.3c-0.8,2.7-1.7,5.4-2.6,8c-0.9,2.7-1.8,5.3-2.7,7.8c-0.9,2.5-1.6,4.7-2.1,6.6c-0.5,1.5-1,3.2-1.3,5
		c-0.8,3.3-1.5,7.7-2.2,13.3c1.1-0.3,2.2-0.8,3.4-1.7c1.2-0.9,2.4-1.8,3.6-2.8c1.3-1.1,2.6-2.2,4-3.6c1.7-1.7,3.1-3.2,4.2-4.6
		c1.1-1.4,2.2-2.9,3.2-4.3c1-1.5,2-3.1,3.1-4.9c1.1-1.8,2.3-3.9,3.8-6.4c1.3-2.1,2.7-4.4,4.1-6.8c1.4-2.4,2.9-4.7,4.3-7
		c1.4-2.2,2.9-4.3,4.3-6.1c1.4-1.8,2.7-3.3,3.8-4.3c0.7,0.9,1.6,1.7,2.7,2.5c1.1,0.8,2.3,1.4,3.5,1.8c0.5,0.8,1,1.5,1.5,2.2
		c0.5,0.7,0.9,1.3,1.4,1.8c0.5,0.8,1,1.5,1.5,2.2c0.5,0.7,0.9,1.4,1.4,2.1c-0.1,0.6-0.2,1.4-0.4,2.4c-0.2,1-0.4,2-0.6,3.2
		c-0.2,1.1-0.5,2.3-0.7,3.5s-0.5,2.3-0.8,3.4c-0.7,3.3-1.2,5.8-1.6,7.5c-0.4,1.7-0.6,3-0.7,4c-0.1,1-0.2,1.8-0.3,2.4
		c0,0.7-0.1,1.6-0.1,2.7c-0.1,0.9,0,1.8,0.1,2.6c0.1,0.8,0.3,1.6,0.5,2.5c0.3,0.9,0.6,1.7,1.1,2.4l5.3-4.1c1.5-1.1,2.9-2.7,4.3-4.7
		c1.4-2,2.7-4.3,4-6.9c1.3-2.6,2.5-5.4,3.8-8.5c1.2-3.1,2.5-6.2,3.7-9.4c1.8-4.7,3.7-9.2,5.6-13.6c1.9-4.4,3.7-7.8,5.5-10.1
		c1.9,1.2,3.6,2.5,5.1,3.8c1.4,1.3,2.7,2.7,3.8,4.1c1.1,1.5,1.9,3.2,2.6,5.1c0.7,1.9,1.1,4.2,1.4,6.9c-1.6,3.1-3.1,6.2-4.5,9.5
		c-1.4,3.3-2.8,6.5-4.1,9.7c-1.8,4.2-3.6,8.4-5.5,12.6c-1.9,4.2-4,8.2-6.3,12.1c-2.3,3.8-4.8,7.3-7.6,10.5c-2.8,3.2-6.1,5.9-9.7,8.1
		c-1-0.3-1.8-0.4-2.5-0.4C773.9,233.2,772.7,233.6,771.8,234.4z"/>
</g>
</svg>
