<?xml version="1.0" encoding="utf-8"?>
<!-- Generator: Adobe Illustrator 18.1.1, SVG Export Plug-In . SVG Version: 6.00 Build 0)  -->
<svg version="1.1" id="Layer_1" xmlns="http://www.w3.org/2000/svg" xmlns:xlink="http://www.w3.org/1999/xlink" x="0px" y="0px"
	 viewBox="0 0 960 560" enable-background="new 0 0 960 560" xml:space="preserve">
<g>
	<g>
		<g>
			<path d="M206.7,202.9c25.1,80.3,48.2,161.2,72,241.9c6.8,23.3,13.7,46.5,20.5,69.8c0.5,1.8,3.4,1.1,2.9-0.8
				c-24-81.5-47.8-163-72-244.4c-6.7-22.5-13.5-44.9-20.5-67.3C209,200.3,206.1,201.1,206.7,202.9L206.7,202.9z"/>
		</g>
	</g>
	<g>
		<g>
			<path d="M309.5,519c96.6-26.4,193.1-52.9,289.7-79.3c27.3-7.5,54.5-14.9,81.8-22.4c1.9-0.5,1.1-3.4-0.8-2.9
				c-96.6,26.4-193.1,52.9-289.7,79.3c-27.3,7.5-54.5,14.9-81.8,22.4C306.8,516.6,307.6,519.5,309.5,519L309.5,519z"/>
		</g>
	</g>
	<g>
		<g>
			<path d="M681.1,409.1c-4.9-28.2-8.5-57.2-17.4-84.5c-4-12.3-9.2-24.2-16.4-34.9c-2.7-4-5.9-9.4-10.8-11c-3.8-1.2-7.9,0.2-9.6,3.8
				c-0.8,1.7,1.8,3.3,2.6,1.5c2.3-5,8-2,10.6,0.8c2.1,2.3,3.9,5.1,5.6,7.7c3,4.7,5.7,9.5,8.1,14.5c4.9,10.5,8.5,21.6,11.3,32.9
				c5.8,23,9.1,46.6,13.2,69.9C678.6,411.8,681.5,411,681.1,409.1L681.1,409.1z"/>
		</g>
	</g>
	<g>
		<g>
			<path d="M621.1,289.4c-12.9,12.5-29.3,26.7-48.7,23.5c-16-2.7-31.3-17.9-35.6-33.3c-4.8-17.2,4.1-35.4,14.2-49
				c3.6-4.9,7.8-8.6,14.3-8.7c4.6-0.1,9.2,1.2,13.7,2.2c9.2,2,18.5,4,27.7,6.1c1.9,0.4,2.7-2.5,0.8-2.9c-8.9-2-17.9-3.9-26.8-5.9
				c-7.2-1.6-15.3-4.1-22.4-1.1c-6.1,2.6-10.1,8.9-13.6,14.3c-4.2,6.6-7.9,13.7-10.1,21.2c-4.2,14.6-1.5,28.8,7.9,40.7
				c8.8,11.1,21.5,20.3,36.2,19.8c18-0.6,32.2-12.9,44.5-24.7C624.6,290.1,622.5,288,621.1,289.4L621.1,289.4z"/>
		</g>
	</g>
	<g>
		<g>
			<path d="M568.8,101.4c2.2,11.1,7.7,21,13.4,30.7c6.3,10.7,12.3,21.6,17.5,32.8c5.3,11.5,10,23.3,13.9,35.4
				c1.9,5.8,4.5,12.1,5.1,18.1c0.8,8.1-6,9.9-12.5,10.9c-1.9,0.3-1.1,3.2,0.8,2.9c9.3-1.5,16.7-5.6,14.4-16.1
				c-3.1-13.8-8.4-27.6-13.8-40.6c-5.2-12.5-11.2-24.7-17.9-36.5c-7-12.3-15.2-24.3-18-38.4C571.3,98.7,568.4,99.5,568.8,101.4
				L568.8,101.4z"/>
		</g>
	</g>
	<g>
		<g>
			<path d="M411.1,120c0.1,10,1.9,24,14.1,25.9c7.3,1.1,15.3-2.3,22.2-4.2c9.2-2.5,18.4-5,27.5-7.6c31.7-8.7,66-15.4,93.6-34.4
				c1.6-1.1,0.1-3.7-1.5-2.6c-24.3,16.7-53.5,23.2-81.5,30.9c-15.2,4.2-30.4,8.4-45.6,12.5c-7.6,2.1-17,5-22.2-2.9
				c-3.3-5.1-3.6-11.8-3.6-17.7C414.1,118.1,411.1,118,411.1,120L411.1,120z"/>
		</g>
	</g>
	<g>
		<g>
			<path d="M219.9,197.7c16.5-4.8,33.1-9.5,50-12.8c16.3-3.2,33.3-3.2,49.3-7.7c7.4-2.1,14.4-5.2,21.2-8.5c5.1-2.5,11-4.5,12.8-10.4
				c3.3-10.8-4.4-22.7-13.6-27.7c-1.7-0.9-3.2,1.7-1.5,2.6c5.6,3,9.9,7.9,11.8,14c1,3.2,1.5,7,0.5,10.3c-1.2,3.8-4.9,5.4-8.2,7
				c-13.5,6.6-26.7,11.3-41.7,13.1c-13.4,1.6-26.6,3.2-39.7,6.2c-14,3.1-27.8,7.1-41.6,11.1C217.3,195.3,218.1,198.2,219.9,197.7
				L219.9,197.7z"/>
		</g>
	</g>
	<g>
		<g>
			<path d="M336.8,126.6c-11.9-12.4-18.3-28.1-12.6-45c5.7-17,21-25,37.5-29.1c9.3-2.3,19.4-5.8,28.4-1c7.2,3.8,13.9,9.3,19.1,15.5
				c11.3,13.4,15.5,33,4.8,48.1c-1.1,1.6,1.5,3.1,2.6,1.5c17.8-25.1-2.8-59.2-28.4-69.3c-7.3-2.9-15.3-0.4-22.6,1.2
				c-7.5,1.7-15,3.7-21.9,7.1c-12.4,6.1-21.2,17.1-23.9,30.7c-3.2,16.4,3.7,30.7,14.8,42.4C336,130.1,338.1,128,336.8,126.6
				L336.8,126.6z"/>
		</g>
	</g>
</g>
<g>
	<g>
		<g>
			<path fill="#1B1464" d="M201.7,199.9c25.1,80.3,48.2,161.2,72,241.9c6.8,23.3,13.7,46.5,20.5,69.8c0.5,1.8,3.4,1.1,2.9-0.8
				c-24-81.5-47.8-163-72-244.4c-6.7-22.5-13.5-44.9-20.5-67.3C204,197.3,201.1,198.1,201.7,199.9L201.7,199.9z"/>
		</g>
	</g>
	<g>
		<g>
			<path fill="#1B1464" d="M304.5,516c96.6-26.4,193.1-52.9,289.7-79.3c27.3-7.5,54.5-14.9,81.8-22.4c1.9-0.5,1.1-3.4-0.8-2.9
				c-96.6,26.4-193.1,52.9-289.7,79.3c-27.3,7.5-54.5,14.9-81.8,22.4C301.8,513.6,302.6,516.5,304.5,516L304.5,516z"/>
		</g>
	</g>
	<g>
		<g>
			<path fill="#1B1464" d="M676.1,406.1c-4.9-28.2-8.5-57.2-17.4-84.5c-4-12.3-9.2-24.2-16.4-34.9c-2.7-4-5.9-9.4-10.8-11
				c-3.8-1.2-7.9,0.2-9.6,3.8c-0.8,1.7,1.8,3.3,2.6,1.5c2.3-5,8-2,10.6,0.8c2.1,2.3,3.9,5.1,5.6,7.7c3,4.7,5.7,9.5,8.1,14.5
				c4.9,10.5,8.5,21.6,11.3,32.9c5.8,23,9.1,46.6,13.2,69.9C673.6,408.8,676.5,408,676.1,406.1L676.1,406.1z"/>
		</g>
	</g>
	<g>
		<g>
			<path fill="#1B1464" d="M616.1,286.4c-12.9,12.5-29.3,26.7-48.7,23.5c-16-2.7-31.3-17.9-35.6-33.3c-4.8-17.2,4.1-35.4,14.2-49
				c3.6-4.9,7.8-8.6,14.3-8.7c4.6-0.1,9.2,1.2,13.7,2.2c9.2,2,18.5,4,27.7,6.1c1.9,0.4,2.7-2.5,0.8-2.9c-8.9-2-17.9-3.9-26.8-5.9
				c-7.2-1.6-15.3-4.1-22.4-1.1c-6.1,2.6-10.1,8.9-13.6,14.3c-4.2,6.6-7.9,13.7-10.1,21.2c-4.2,14.6-1.5,28.8,7.9,40.7
				c8.8,11.1,21.5,20.3,36.2,19.8c18-0.6,32.2-12.9,44.5-24.7C619.6,287.1,617.5,285,616.1,286.4L616.1,286.4z"/>
		</g>
	</g>
	<g>
		<g>
			<path fill="#1B1464" d="M563.8,98.4c2.2,11.1,7.7,21,13.4,30.7c6.3,10.7,12.3,21.6,17.5,32.8c5.3,11.5,10,23.3,13.9,35.4
				c1.9,5.8,4.5,12.1,5.1,18.1c0.8,8.1-6,9.9-12.5,10.9c-1.9,0.3-1.1,3.2,0.8,2.9c9.3-1.5,16.7-5.6,14.4-16.1
				c-3.1-13.8-8.4-27.6-13.8-40.6c-5.2-12.5-11.2-24.7-17.9-36.5c-7-12.3-15.2-24.3-18-38.4C566.3,95.7,563.4,96.5,563.8,98.4
				L563.8,98.4z"/>
		</g>
	</g>
	<g>
		<g>
			<path fill="#1B1464" d="M406.1,117c0.1,10,1.9,24,14.1,25.9c7.3,1.1,15.3-2.3,22.2-4.2c9.2-2.5,18.4-5,27.5-7.6
				c31.7-8.7,66-15.4,93.6-34.4c1.6-1.1,0.1-3.7-1.5-2.6c-24.3,16.7-53.5,23.2-81.5,30.9c-15.2,4.2-30.4,8.4-45.6,12.5
				c-7.6,2.1-17,5-22.2-2.9c-3.3-5.1-3.6-11.8-3.6-17.7C409.1,115.1,406.1,115,406.1,117L406.1,117z"/>
		</g>
	</g>
	<g>
		<g>
			<path fill="#1B1464" d="M214.9,194.7c16.5-4.8,33.1-9.5,50-12.8c16.3-3.2,33.3-3.2,49.3-7.7c7.4-2.1,14.4-5.2,21.2-8.5
				c5.1-2.5,11-4.5,12.8-10.4c3.3-10.8-4.4-22.7-13.6-27.7c-1.7-0.9-3.2,1.7-1.5,2.6c5.6,3,9.9,7.9,11.8,14c1,3.2,1.5,7,0.5,10.3
				c-1.2,3.8-4.9,5.4-8.2,7c-13.5,6.6-26.7,11.3-41.7,13.1c-13.4,1.6-26.6,3.2-39.7,6.2c-14,3.1-27.8,7.1-41.6,11.1
				C212.3,192.3,213.1,195.2,214.9,194.7L214.9,194.7z"/>
		</g>
	</g>
	<g>
		<g>
			<path fill="#1B1464" d="M331.8,123.6c-11.9-12.4-18.3-28.1-12.6-45c5.7-17,21-25,37.5-29.1c9.3-2.3,19.4-5.8,28.4-1
				c7.2,3.8,13.9,9.3,19.1,15.5c11.3,13.4,15.5,33,4.8,48.1c-1.1,1.6,1.5,3.1,2.6,1.5c17.8-25.1-2.8-59.2-28.4-69.3
				c-7.3-2.9-15.3-0.4-22.6,1.2c-7.5,1.7-15,3.7-21.9,7.1c-12.4,6.1-21.2,17.1-23.9,30.7c-3.2,16.4,3.7,30.7,14.8,42.4
				C331,127.1,333.1,125,331.8,123.6L331.8,123.6z"/>
		</g>
	</g>
</g>
<g>
	<g>
		<g>
			<path fill="#006837" d="M198.7,195.9c25.1,80.3,48.2,161.2,72,241.9c6.8,23.3,13.7,46.5,20.5,69.8c0.5,1.8,3.4,1.1,2.9-0.8
				c-24-81.5-47.8-163-72-244.4c-6.7-22.5-13.5-44.9-20.5-67.3C201,193.3,198.1,194.1,198.7,195.9L198.7,195.9z"/>
		</g>
	</g>
	<g>
		<g>
			<path fill="#006837" d="M301.5,512c96.6-26.4,193.1-52.9,289.7-79.3c27.3-7.5,54.5-14.9,81.8-22.4c1.9-0.5,1.1-3.4-0.8-2.9
				c-96.6,26.4-193.1,52.9-289.7,79.3c-27.3,7.5-54.5,14.9-81.8,22.4C298.8,509.6,299.6,512.5,301.5,512L301.5,512z"/>
		</g>
	</g>
	<g>
		<g>
			<path fill="#006837" d="M673.1,402.1c-4.9-28.2-8.5-57.2-17.4-84.5c-4-12.3-9.2-24.2-16.4-34.9c-2.7-4-5.9-9.4-10.8-11
				c-3.8-1.2-7.9,0.2-9.6,3.8c-0.8,1.7,1.8,3.3,2.6,1.5c2.3-5,8-2,10.6,0.8c2.1,2.3,3.9,5.1,5.6,7.7c3,4.7,5.7,9.5,8.1,14.5
				c4.9,10.5,8.5,21.6,11.3,32.9c5.8,23,9.1,46.6,13.2,69.9C670.6,404.8,673.5,404,673.1,402.1L673.1,402.1z"/>
		</g>
	</g>
	<g>
		<g>
			<path fill="#006837" d="M613.1,282.4c-12.9,12.5-29.3,26.7-48.7,23.5c-16-2.7-31.3-17.9-35.6-33.3c-4.8-17.2,4.1-35.4,14.2-49
				c3.6-4.9,7.8-8.6,14.3-8.7c4.6-0.1,9.2,1.2,13.7,2.2c9.2,2,18.5,4,27.7,6.1c1.9,0.4,2.7-2.5,0.8-2.9c-8.9-2-17.9-3.9-26.8-5.9
				c-7.2-1.6-15.3-4.1-22.4-1.1c-6.1,2.6-10.1,8.9-13.6,14.3c-4.2,6.6-7.9,13.7-10.1,21.2c-4.2,14.6-1.5,28.8,7.9,40.7
				c8.8,11.1,21.5,20.3,36.2,19.8c18-0.6,32.2-12.9,44.5-24.7C616.6,283.1,614.5,281,613.1,282.4L613.1,282.4z"/>
		</g>
	</g>
	<g>
		<g>
			<path fill="#006837" d="M560.8,94.4c2.2,11.1,7.7,21,13.4,30.7c6.3,10.7,12.3,21.6,17.5,32.8c5.3,11.5,10,23.3,13.9,35.4
				c1.9,5.8,4.5,12.1,5.1,18.1c0.8,8.1-6,9.9-12.5,10.9c-1.9,0.3-1.1,3.2,0.8,2.9c9.3-1.5,16.7-5.6,14.4-16.1
				c-3.1-13.8-8.4-27.6-13.8-40.6c-5.2-12.5-11.2-24.7-17.9-36.5c-7-12.3-15.2-24.3-18-38.4C563.3,91.7,560.4,92.5,560.8,94.4
				L560.8,94.4z"/>
		</g>
	</g>
	<g>
		<g>
			<path fill="#006837" d="M403.1,113c0.1,10,1.9,24,14.1,25.9c7.3,1.1,15.3-2.3,22.2-4.2c9.2-2.5,18.4-5,27.5-7.6
				c31.7-8.7,66-15.4,93.6-34.4c1.6-1.1,0.1-3.7-1.5-2.6c-24.3,16.7-53.5,23.2-81.5,30.9c-15.2,4.2-30.4,8.4-45.6,12.5
				c-7.6,2.1-17,5-22.2-2.9c-3.3-5.1-3.6-11.8-3.6-17.7C406.1,111.1,403.1,111,403.1,113L403.1,113z"/>
		</g>
	</g>
	<g>
		<g>
			<path fill="#006837" d="M211.9,190.7c16.5-4.8,33.1-9.5,50-12.8c16.3-3.2,33.3-3.2,49.3-7.7c7.4-2.1,14.4-5.2,21.2-8.5
				c5.1-2.5,11-4.5,12.8-10.4c3.3-10.8-4.4-22.7-13.6-27.7c-1.7-0.9-3.2,1.7-1.5,2.6c5.6,3,9.9,7.9,11.8,14c1,3.2,1.5,7,0.5,10.3
				c-1.2,3.8-4.9,5.4-8.2,7c-13.5,6.6-26.7,11.3-41.7,13.1c-13.4,1.6-26.6,3.2-39.7,6.2c-14,3.1-27.8,7.1-41.6,11.1
				C209.3,188.3,210.1,191.2,211.9,190.7L211.9,190.7z"/>
		</g>
	</g>
	<g>
		<g>
			<path fill="#006837" d="M328.8,119.6c-11.9-12.4-18.3-28.1-12.6-45c5.7-17,21-25,37.5-29.1c9.3-2.3,19.4-5.8,28.4-1
				c7.2,3.8,13.9,9.3,19.1,15.5c11.3,13.4,15.5,33,4.8,48.1c-1.1,1.6,1.5,3.1,2.6,1.5c17.8-25.1-2.8-59.2-28.4-69.3
				c-7.3-2.9-15.3-0.4-22.6,1.2c-7.5,1.7-15,3.7-21.9,7.1c-12.4,6.1-21.2,17.1-23.9,30.7c-3.2,16.4,3.7,30.7,14.8,42.4
				C328,123.1,330.1,121,328.8,119.6L328.8,119.6z"/>
		</g>
	</g>
</g>
<g>
	<g>
		<g>
			<path fill="#662D91" d="M209.7,206.9c25.1,80.3,48.2,161.2,72,241.9c6.8,23.3,13.7,46.5,20.5,69.8c0.5,1.8,3.4,1.1,2.9-0.8
				c-24-81.5-47.8-163-72-244.4c-6.7-22.5-13.5-44.9-20.5-67.3C212,204.3,209.1,205.1,209.7,206.9L209.7,206.9z"/>
		</g>
	</g>
	<g>
		<g>
			<path fill="#662D91" d="M312.5,523c96.6-26.4,193.1-52.9,289.7-79.3c27.3-7.5,54.5-14.9,81.8-22.4c1.9-0.5,1.1-3.4-0.8-2.9
				c-96.6,26.4-193.1,52.9-289.7,79.3c-27.3,7.5-54.5,14.9-81.8,22.4C309.8,520.6,310.6,523.5,312.5,523L312.5,523z"/>
		</g>
	</g>
	<g>
		<g>
			<path fill="#662D91" d="M684.1,413.1c-4.9-28.2-8.5-57.2-17.4-84.5c-4-12.3-9.2-24.2-16.4-34.9c-2.7-4-5.9-9.4-10.8-11
				c-3.8-1.2-7.9,0.2-9.6,3.8c-0.8,1.7,1.8,3.3,2.6,1.5c2.3-5,8-2,10.6,0.8c2.1,2.3,3.9,5.1,5.6,7.7c3,4.7,5.7,9.5,8.1,14.5
				c4.9,10.5,8.5,21.6,11.3,32.9c5.8,23,9.1,46.6,13.2,69.9C681.6,415.8,684.5,415,684.1,413.1L684.1,413.1z"/>
		</g>
	</g>
	<g>
		<g>
			<path fill="#662D91" d="M624.1,293.4c-12.9,12.5-29.3,26.7-48.7,23.5c-16-2.7-31.3-17.9-35.6-33.3c-4.8-17.2,4.1-35.4,14.2-49
				c3.6-4.9,7.8-8.6,14.3-8.7c4.6-0.1,9.2,1.2,13.7,2.2c9.2,2,18.5,4,27.7,6.1c1.9,0.4,2.7-2.5,0.8-2.9c-8.9-2-17.9-3.9-26.8-5.9
				c-7.2-1.6-15.3-4.1-22.4-1.1c-6.1,2.6-10.1,8.9-13.6,14.3c-4.2,6.6-7.9,13.7-10.1,21.2c-4.2,14.6-1.5,28.8,7.9,40.7
				c8.8,11.1,21.5,20.3,36.2,19.8c18-0.6,32.2-12.9,44.5-24.7C627.6,294.1,625.5,292,624.1,293.4L624.1,293.4z"/>
		</g>
	</g>
	<g>
		<g>
			<path fill="#662D91" d="M571.8,105.4c2.2,11.1,7.7,21,13.4,30.7c6.3,10.7,12.3,21.6,17.5,32.8c5.3,11.5,10,23.3,13.9,35.4
				c1.9,5.8,4.5,12.1,5.1,18.1c0.8,8.1-6,9.9-12.5,10.9c-1.9,0.3-1.1,3.2,0.8,2.9c9.3-1.5,16.7-5.6,14.4-16.1
				c-3.1-13.8-8.4-27.6-13.8-40.6c-5.2-12.5-11.2-24.7-17.9-36.5c-7-12.3-15.2-24.3-18-38.4C574.3,102.7,571.4,103.5,571.8,105.4
				L571.8,105.4z"/>
		</g>
	</g>
	<g>
		<g>
			<path fill="#662D91" d="M414.1,124c0.1,10,1.9,24,14.1,25.9c7.3,1.1,15.3-2.3,22.2-4.2c9.2-2.5,18.4-5,27.5-7.6
				c31.7-8.7,66-15.4,93.6-34.4c1.6-1.1,0.1-3.7-1.5-2.6c-24.3,16.7-53.5,23.2-81.5,30.9c-15.2,4.2-30.4,8.4-45.6,12.5
				c-7.6,2.1-17,5-22.2-2.9c-3.3-5.1-3.6-11.8-3.6-17.7C417.1,122.1,414.1,122,414.1,124L414.1,124z"/>
		</g>
	</g>
	<g>
		<g>
			<path fill="#662D91" d="M222.9,201.7c16.5-4.8,33.1-9.5,50-12.8c16.3-3.2,33.3-3.2,49.3-7.7c7.4-2.1,14.4-5.2,21.2-8.5
				c5.1-2.5,11-4.5,12.8-10.4c3.3-10.8-4.4-22.7-13.6-27.7c-1.7-0.9-3.2,1.7-1.5,2.6c5.6,3,9.9,7.9,11.8,14c1,3.2,1.5,7,0.5,10.3
				c-1.2,3.8-4.9,5.4-8.2,7c-13.5,6.6-26.7,11.3-41.7,13.1c-13.4,1.6-26.6,3.2-39.7,6.2c-14,3.1-27.8,7.1-41.6,11.1
				C220.3,199.3,221.1,202.2,222.9,201.7L222.9,201.7z"/>
		</g>
	</g>
	<g>
		<g>
			<path fill="#662D91" d="M339.8,130.6c-11.9-12.4-18.3-28.1-12.6-45c5.7-17,21-25,37.5-29.1c9.3-2.3,19.4-5.8,28.4-1
				c7.2,3.8,13.9,9.3,19.1,15.5c11.3,13.4,15.5,33,4.8,48.1c-1.1,1.6,1.5,3.1,2.6,1.5c17.8-25.1-2.8-59.2-28.4-69.3
				c-7.3-2.9-15.3-0.4-22.6,1.2c-7.5,1.7-15,3.7-21.9,7.1c-12.4,6.1-21.2,17.1-23.9,30.7c-3.2,16.4,3.7,30.7,14.8,42.4
				C339,134.1,341.1,132,339.8,130.6L339.8,130.6z"/>
		</g>
	</g>
</g>
<g>
	<g>
		<g>
			<path fill="#C1272D" d="M213.7,206.9c25.1,80.3,48.2,161.2,72,241.9c6.8,23.3,13.7,46.5,20.5,69.8c0.5,1.8,3.4,1.1,2.9-0.8
				c-24-81.5-47.8-163-72-244.4c-6.7-22.5-13.5-44.9-20.5-67.3C216,204.3,213.1,205.1,213.7,206.9L213.7,206.9z"/>
		</g>
	</g>
	<g>
		<g>
			<path fill="#C1272D" d="M316.5,523c96.6-26.4,193.1-52.9,289.7-79.3c27.3-7.5,54.5-14.9,81.8-22.4c1.9-0.5,1.1-3.4-0.8-2.9
				c-96.6,26.4-193.1,52.9-289.7,79.3c-27.3,7.5-54.5,14.9-81.8,22.4C313.8,520.6,314.6,523.5,316.5,523L316.5,523z"/>
		</g>
	</g>
	<g>
		<g>
			<path fill="#C1272D" d="M688.1,413.1c-4.9-28.2-8.5-57.2-17.4-84.5c-4-12.3-9.2-24.2-16.4-34.9c-2.7-4-5.9-9.4-10.8-11
				c-3.8-1.2-7.9,0.2-9.6,3.8c-0.8,1.7,1.8,3.3,2.6,1.5c2.3-5,8-2,10.6,0.8c2.1,2.3,3.9,5.1,5.6,7.7c3,4.7,5.7,9.5,8.1,14.5
				c4.9,10.5,8.5,21.6,11.3,32.9c5.8,23,9.1,46.6,13.2,69.9C685.6,415.8,688.5,415,688.1,413.1L688.1,413.1z"/>
		</g>
	</g>
	<g>
		<g>
			<path fill="#C1272D" d="M628.1,293.4c-12.9,12.5-29.3,26.7-48.7,23.5c-16-2.7-31.3-17.9-35.6-33.3c-4.8-17.2,4.1-35.4,14.2-49
				c3.6-4.9,7.8-8.6,14.3-8.7c4.6-0.1,9.2,1.2,13.7,2.2c9.2,2,18.5,4,27.7,6.1c1.9,0.4,2.7-2.5,0.8-2.9c-8.9-2-17.9-3.9-26.8-5.9
				c-7.2-1.6-15.3-4.1-22.4-1.1c-6.1,2.6-10.1,8.9-13.6,14.3c-4.2,6.6-7.9,13.7-10.1,21.2c-4.2,14.6-1.5,28.8,7.9,40.7
				c8.8,11.1,21.5,20.3,36.2,19.8c18-0.6,32.2-12.9,44.5-24.7C631.6,294.1,629.5,292,628.1,293.4L628.1,293.4z"/>
		</g>
	</g>
	<g>
		<g>
			<path fill="#C1272D" d="M575.8,105.4c2.2,11.1,7.7,21,13.4,30.7c6.3,10.7,12.3,21.6,17.5,32.8c5.3,11.5,10,23.3,13.9,35.4
				c1.9,5.8,4.5,12.1,5.1,18.1c0.8,8.1-6,9.9-12.5,10.9c-1.9,0.3-1.1,3.2,0.8,2.9c9.3-1.5,16.7-5.6,14.4-16.1
				c-3.1-13.8-8.4-27.6-13.8-40.6c-5.2-12.5-11.2-24.7-17.9-36.5c-7-12.3-15.2-24.3-18-38.4C578.3,102.7,575.4,103.5,575.8,105.4
				L575.8,105.4z"/>
		</g>
	</g>
	<g>
		<g>
			<path fill="#C1272D" d="M418.1,124c0.1,10,1.9,24,14.1,25.9c7.3,1.1,15.3-2.3,22.2-4.2c9.2-2.5,18.4-5,27.5-7.6
				c31.7-8.7,66-15.4,93.6-34.4c1.6-1.1,0.1-3.7-1.5-2.6c-24.3,16.7-53.5,23.2-81.5,30.9c-15.2,4.2-30.4,8.4-45.6,12.5
				c-7.6,2.1-17,5-22.2-2.9c-3.3-5.1-3.6-11.8-3.6-17.7C421.1,122.1,418.1,122,418.1,124L418.1,124z"/>
		</g>
	</g>
	<g>
		<g>
			<path fill="#C1272D" d="M226.9,201.7c16.5-4.8,33.1-9.5,50-12.8c16.3-3.2,33.3-3.2,49.3-7.7c7.4-2.1,14.4-5.2,21.2-8.5
				c5.1-2.5,11-4.5,12.8-10.4c3.3-10.8-4.4-22.7-13.6-27.7c-1.7-0.9-3.2,1.7-1.5,2.6c5.6,3,9.9,7.9,11.8,14c1,3.2,1.5,7,0.5,10.3
				c-1.2,3.8-4.9,5.4-8.2,7c-13.5,6.6-26.7,11.3-41.7,13.1c-13.4,1.6-26.6,3.2-39.7,6.2c-14,3.1-27.8,7.1-41.6,11.1
				C224.3,199.3,225.1,202.2,226.9,201.7L226.9,201.7z"/>
		</g>
	</g>
	<g>
		<g>
			<path fill="#C1272D" d="M343.8,130.6c-11.9-12.4-18.3-28.1-12.6-45c5.7-17,21-25,37.5-29.1c9.3-2.3,19.4-5.8,28.4-1
				c7.2,3.8,13.9,9.3,19.1,15.5c11.3,13.4,15.5,33,4.8,48.1c-1.1,1.6,1.5,3.1,2.6,1.5c17.8-25.1-2.8-59.2-28.4-69.3
				c-7.3-2.9-15.3-0.4-22.6,1.2c-7.5,1.7-15,3.7-21.9,7.1c-12.4,6.1-21.2,17.1-23.9,30.7c-3.2,16.4,3.7,30.7,14.8,42.4
				C343,134.1,345.1,132,343.8,130.6L343.8,130.6z"/>
		</g>
	</g>
</g>
</svg>
