<?xml version="1.0" encoding="utf-8"?>
<!-- Generator: Adobe Illustrator 18.1.1, SVG Export Plug-In . SVG Version: 6.00 Build 0)  -->
<svg version="1.1" id="Layer_1" xmlns="http://www.w3.org/2000/svg" xmlns:xlink="http://www.w3.org/1999/xlink" x="0px" y="0px"
	 viewBox="0 0 960 560" enable-background="new 0 0 960 560" xml:space="preserve">
<g>
	<g>
		<path fill="#1B1464" d="M53.7,312.6c10.7-24.5,23.3-48.2,37.6-70.8c7.1-11.3,14.7-22.3,22.6-32.9c1.1-1.4,2.1-2.9,3.2-4.3
			c0.4-0.6,3.6-4.6,1.4-1.8c-2.2,2.8,1.5-1.9,2-2.5c0.9-1.2,1.9-2.3,2.8-3.5c4.5-5.6,9.1-11.1,13.8-16.5
			c-12.6-9.7-25.1-19.4-37.7-29.1c-33.1,55.8-52.6,118.7-57,183.4c-0.7,10,7.9,20.9,17.6,23.1c4.2,1,8.5,1,12.8,0
			c5-1.1,12.2-6.1,14.3-11c16.2-37.7,34.8-74.4,55.7-109.7c10.4-17.5,21.3-34.7,32.8-51.5c5.8-8.4,11.7-16.8,17.7-25
			c2.8-3.9,5.7-7.8,8.6-11.6c1.6-2.2,3.3-4.3,4.9-6.5c2.1-2.7-2.5,3.3-0.4,0.6c0.9-1.2,1.9-2.4,2.8-3.6c6.5-8.3,13.1-16.7,20.5-24.3
			c1.9-1.9,3.8-3.8,5.9-5.7c0.8-0.7,1.6-1.4,2.5-2.1c0.6-0.5,1.2-1,1.9-1.5c1.4-1.1,0.8-0.7-1.6,1.3c0.4-1.4,5.6-3.8,6.8-4.5
			c2.4-1.4,4.9-2.6,7.4-3.7c-10.9-10.9-21.9-21.9-32.8-32.8c-49.8,73.5-86.8,156.1-107.8,242.4c-5.8,23.7-10.2,47.7-13.5,71.8
			c-0.9,6.7-1.1,12.4,2.4,18.5c2.9,5,8.6,9.7,14.3,11c12.1,2.8,26.7-3.6,29.5-16.8c4.9-22.5,11.4-44.6,19.3-66.2
			c2-5.4,4.1-10.8,6.3-16.1c0.4-1,0.8-1.9,1.2-2.9c2.1-5.2-2.2,5,0-0.1c1.3-2.9,2.5-5.8,3.8-8.7c4.8-10.6,9.9-21,15.4-31.2
			c11.1-20.6,23.5-40.5,37.1-59.4c3.1-4.3,6.5-8.5,9.6-12.9c-3.7,5.4-0.6,0.8,0.2-0.2c0.8-1.1,1.7-2.1,2.5-3.2
			c2.2-2.7,4.4-5.4,6.6-8.1c7.4-8.9,15-17.6,23-26c18.4-19.6,38.3-37.7,59.4-54.4c-12.6-9.7-25.1-19.4-37.7-29.1
			c-52.8,68.5-85.8,149.8-110.8,232c-6.9,22.8-13.3,45.8-19.4,68.9c-3.2,12.1,4,26.6,16.8,29.5c13,3,25.6-3.9,29.5-16.8
			c2.6-8.5,5.4-16.9,8.4-25.3c1.5-4.1,3-8.1,4.6-12.1c0.7-1.8,1.4-3.5,2.1-5.3c0.4-0.9,0.7-2.1,1.2-3c-3.1,5.5-0.5,1.2,0.1-0.2
			c7-16.2,14.9-32,23.7-47.3c8.8-15.4,18.4-30.4,28.8-44.8c2.6-3.6,5.2-7.1,7.8-10.6c0.7-0.9,1.3-1.8,2-2.6
			c-0.4,0.5-3.3,4.2-0.7,0.9c1.5-1.9,3.1-3.9,4.6-5.8c5.7-7.1,11.6-14,17.7-20.8c13.8-15.3,28.5-29.8,43.9-43.4
			c-12.6-9.7-25.1-19.4-37.7-29.1c-46.8,78.6-81.6,164.9-101.2,254.4c-5.8,26.2-10,52.6-13.4,79.2c-0.7,5.4,3.1,13.4,7,17
			c4,3.6,8.4,5.9,13.8,6.6c11.4,1.5,23.5-5.5,26.3-17.2c7.9-32.7,17.8-64.8,29.7-96.2c2.9-7.8,6-15.5,9.2-23.1c0.4-1,0.8-2,1.2-3
			c1.3-3-1.8,4.3-0.5,1.3c0.7-1.7,1.5-3.5,2.2-5.2c1.7-3.9,3.5-7.9,5.2-11.8c7-15.4,14.5-30.7,22.4-45.6
			c15.9-30.2,33.7-59.3,53.1-87.4c4.8-6.9,9.7-13.8,14.7-20.6c2.4-3.3,4.9-6.6,7.3-9.8c0.7-0.9,1.3-1.7,2-2.6
			c0.5-0.7,2.7-3.5,0.6-0.8c-2,2.6-0.3,0.3,0.1-0.2c1-1.3,2-2.6,3-3.9c10.5-13.3,21.4-26.4,32.6-39.1c26-29.3,53.9-56.9,83.5-82.6
			c-12.6-9.7-25.1-19.4-37.7-29.1c-21.2,27.6-42.5,55.2-61.9,84.2c-17.9,26.7-34.2,54.4-48.9,83c-29.8,58.1-53.2,119.8-68.8,183.2
			c-8.9,36.1-15,72.9-19,109.8c-1.3,11.8,10.1,22.1,20.8,23.6c10.6,1.4,24.6-5.4,26.3-17.2c7.5-50.9,22.1-100.3,41.7-147.8
			c1.6-4-0.2,0.4-0.4,1c0.6-1.6,1.3-3.1,2-4.7c1.2-2.9,2.5-5.7,3.8-8.6c2.7-6,5.5-11.9,8.3-17.8c5.7-11.9,11.7-23.6,18.1-35.1
			c12.4-22.7,26-44.9,40.4-66.4c8.1-12,16.4-23.9,25-35.5c2.2-3,4.5-6.1,6.8-9.1c0.9-1.2,1.8-2.3,2.6-3.5c0.8-1,5.4-7.3,1.6-2
			c4.5-6.1,9.3-11.9,14.1-17.7c-12.6-9.7-25.1-19.4-37.7-29.1c-40.2,82.5-81.5,166.7-100.2,257.2c-5.4,26.3-9,53.1-10.2,79.9
			c-0.5,11.9,9.5,22.1,20.8,23.6c10.7,1.4,24.5-5.4,26.3-17.2c3.6-22.5,8.6-44.8,15-66.7c3.3-11.1,6.9-22.1,10.9-33
			c1.9-5.1,3.8-10.1,5.8-15.1c1-2.5,1.8-5.1,3.1-7.5c-2.6,5-1.1,2.5-0.5,1.2c0.9-2,1.7-4,2.6-6c9.3-20.9,19.8-41.2,31.6-60.8
			c5.9-9.9,12.1-19.5,18.6-29c3.1-4.5,6.3-9,9.5-13.4c1.6-2.2,3.3-4.4,4.9-6.6c1-1.3,2-2.6,3-3.9c3.5-4.6-3.3,4.1,0.3-0.4
			c16.6-20.9,34.3-40.7,53.5-59.2c-12.6-9.7-25.1-19.4-37.7-29.1c-18.9,42-37.8,84-56.7,125.9c-9.3,20.6-18.7,41.2-27.8,61.8
			c-9.2,21-18.3,42.4-23.3,64.8c-5.6,25.5-6.5,52.6,2.4,77.5c3.5,9.7,12.1,18.1,23.1,17.6c10.4-0.5,20.5-7.1,23.1-17.6
			c5.5-21.7,12.3-43.1,20.4-64c1.9-5.1,4-10.1,6-15.1c1.4-3.3-2.4,5.5-0.2,0.5c0.5-1.2,1.1-2.5,1.6-3.7c1.2-2.7,2.4-5.5,3.6-8.2
			c4.7-10.4,9.8-20.7,15.1-30.8c10.5-19.8,22-39.1,34.6-57.7c6.5-9.6,13.3-18.9,20.2-28.1c0.8-1,2.6-3.7-0.7,0.9
			c1-1.3,2-2.6,3.1-3.9c1.5-2,3.1-3.9,4.7-5.8c3.7-4.5,7.4-9,11.1-13.4c17-19.9,35.3-38.7,54.7-56.3c-13.7-5.7-27.3-11.3-41-17
			c-0.6,5.7,0.8-4.1,0.1-0.5c-0.3,1.4-0.5,2.8-0.8,4.2c-0.5,2.5-1.1,5-1.8,7.4c-0.7,2.5-1.5,4.9-2.3,7.3c-0.4,1.1-0.8,2.2-1.2,3.2
			c-0.2,0.6-3,7-1.4,3.5c1.7-3.6-0.7,1.6-0.9,1.9c-0.5,1.1-1,2.1-1.5,3.1c-1.3,2.6-2.6,5.2-3.9,7.8c-2.6,4.9-5.3,9.8-8.1,14.6
			c-11.8,20.6-23.6,41-34.2,62.3c-21.8,44.1-40.4,90.5-53,138.1c-7.3,27.8-12.2,56.3-14.1,85c-0.8,11.9,9.7,22.1,20.8,23.6
			c11.5,1.5,23.4-5.5,26.3-17.2c5.6-22.2,12.3-44.2,20.2-65.7c1.9-5.2,3.9-10.4,5.9-15.5c1-2.6,2.1-5.2,3.1-7.7
			c0.5-1.3,1.1-2.6,1.6-3.8c2.2-5.4-2.1,4.9,0.2-0.4c4.6-10.7,9.5-21.4,14.6-31.8c20.3-41.4,44.8-80.4,72.6-117.1
			c3.5-4.7-3.2,4.1,0.4-0.5c1-1.3,2.1-2.7,3.1-4c2.1-2.7,4.2-5.3,6.4-7.9c3.9-4.8,7.9-9.6,12-14.3c8.9-10.4,18.1-20.4,27.6-30.3
			c-12.6-9.7-25.1-19.4-37.7-29.1c-41.6,89.8-84.1,180.9-104.5,278.3c-3.1,14.7-5.6,29.6-7.5,44.5c-1.9,15-2,30.5,2.6,45.1
			c3.1,9.7,12.4,18.1,23.1,17.6c10.1-0.5,21-7.1,23.1-17.6c4.9-24,11.2-47.7,18.9-71c3.8-11.4,7.9-22.7,12.3-33.9
			c1.2-3.1,2.4-6.1,3.7-9.1c0.4-1,0.9-2,1.3-3c-2.4,6.2-0.4,0.9,0.2-0.3c2.5-5.8,5.1-11.5,7.8-17.3c10.4-22.2,22-43.9,34.8-64.8
			c6.4-10.4,13-20.6,20-30.7c3.5-5,7-10,10.6-15c1.6-2.2,3.3-4.5,5-6.7c1-1.3,2-2.7,3-4c1.6-2.1,1.4-1.8-0.7,0.9
			c0.7-0.9,1.4-1.8,2.1-2.6c17.3-22.1,36-43.1,55.9-62.9c-13.4-7.8-26.7-15.6-40.1-23.4c-3.9,10.7-8,21.3-12.4,31.9
			c-1,2.4-2,4.9-3,7.3c-0.4,1.1-0.9,2.2-1.4,3.2c2.6-5.8,0.1-0.3-0.3,0.8c-2.2,5.1-4.4,10.3-6.6,15.4c-9.1,20.8-18.5,41.4-27.6,62.2
			c-18.5,42-36.4,84.6-47.9,129.1c-6.6,25.6-10.9,52-12.5,78.4c-0.7,11.9,9.7,22.1,20.8,23.6c11.4,1.5,23.5-5.5,26.3-17.2
			c6.9-28.9,15.4-57.5,25.3-85.5c5-14.1,10.4-28,16.1-41.7c1.7-4-1.9,4.5,0.5-1.1c0.7-1.5,1.3-3.1,2-4.6c1.5-3.6,3.1-7.1,4.7-10.6
			c3.1-6.8,6.3-13.6,9.5-20.4c13.1-27.1,27.6-53.5,43.5-79.1c8-12.9,16.3-25.5,24.9-37.9c4.3-6.2,8.7-12.4,13.2-18.5
			c2.2-3,4.3-5.9,6.5-8.8c1-1.4,2-2.7,3.1-4c0.7-0.9,1.4-1.8,2-2.7c1.8-2.4,0.3-0.3-0.7,0.8c11-12.9,21.1-26.5,32.3-39.3
			c11.6-13.3,23.5-26.2,35.8-38.8c-13.4-7.8-26.7-15.6-40.1-23.4c-1.5,5.9-3.1,13.1-6.1,18.5c2.5-4.6,0.9-2,0.3-0.8
			c-0.8,1.6-1.5,3.2-2.2,4.9c-1.5,3.2-3.2,6.4-4.9,9.6c-6.3,11.7-13.4,22.8-20.5,34c-13.8,21.8-27.4,43.8-40.2,66.2
			c-26,45.9-49.2,94.4-62.5,145.6c-7.5,28.9-11.7,58.9-11.8,88.8c0,12,9.2,22,20.8,23.6c11.6,1.6,23.2-5.6,26.3-17.2
			c5-18.6,10.7-36.9,17.1-55.1c3.1-8.8,6.4-17.6,9.8-26.3c1.7-4.4,3.5-8.7,5.2-13c0.4-1.1,0.9-2.2,1.3-3.2c-0.3,0.6-2.1,4.9-0.4,0.9
			c1-2.4,2.1-4.8,3.1-7.3c15.5-35.3,33.5-69.5,53.9-102.3c11.6-18.7,24-36.8,37-54.5c-13.8-8.1-27.6-16.2-41.4-24.2
			c-16.2,35.1-32.4,70.1-48.5,105.2c-16.1,35-34.3,69.8-46.8,106.3c-7,20.3-11.4,41.9-10.9,63.5c0.3,12,8.9,22,20.8,23.6
			c12.7,1.7,21.7-5.9,26.3-17.2c3.3-8.1,6.6-16.1,10-24.2c1.5-3.5,3-7.1,4.4-10.6c-2.5,6.1,0.1-0.3,0.8-1.8c1-2.3,1.9-4.5,2.9-6.8
			c6.9-15.9,14-31.6,21.7-47.1c7.5-15.2,15.6-30.2,24.3-44.8c4.5-7.5,9.2-14.9,14.1-22.1c2.1-3.2,4.3-6.3,6.6-9.4
			c1.3-1.8,2.6-3.5,3.9-5.3c0.7-0.9,1.3-1.8,2-2.6c0.5-0.6,3.4-4.5,1.1-1.5c-2,2.6-0.2,0.3,0.1-0.2c1-1.3,2-2.6,3.1-3.9
			c1.4-1.7,2.8-3.4,4.2-5.1c3.2-3.8,6.5-7.5,9.8-11.2c6.7-7.4,13.8-14.5,21.2-21.3c-12.6-9.7-25.1-19.4-37.7-29.1
			c-29.3,65.7-58.6,131.4-87.8,197.2c-2.7,6.1-4.3,11.8-2.4,18.5c1.5,5.6,5.8,11.6,11,14.3c11.6,6.1,26,2.9,32.8-8.6
			c17-28.5,34.2-57.1,53.8-83.9c1.2-1.6,2.3-3.2,3.5-4.7c0.8-1.1,5.3-7.3,1.3-1.8c2.3-3.2,4.9-6.2,7.3-9.2
			c5.3-6.5,10.8-12.8,16.6-19c11.6-12.4,24-23.9,37.4-34.4c-13.4-7.8-26.7-15.6-40.1-23.4c-15.6,41.4-31.2,82.8-46.8,124.2
			c-3.6,9.5,2.3,22.5,11,27.1c9.4,5,21.4,4.1,29.1-3.8c20.3-20.7,40.5-41.4,60.8-62.1c-12.6-9.7-25.1-19.4-37.7-29.1
			c-7.7,16.9-15.5,33.7-23.2,50.6c-2.8,6-4.2,11.9-2.4,18.5c1.5,5.6,5.8,11.6,11,14.3c5.6,2.9,12.3,4.4,18.5,2.4
			c6.3-2.1,10.3-5.8,14.3-11c7.5-9.8,15-19.7,22.4-29.5c-13.8-8.1-27.6-16.2-41.4-24.2c-5.7,10.1-10.2,21.2-12.4,32.6
			c-2.4,12.3,3.5,26.5,16.8,29.5c11.9,2.7,26.9-3.6,29.5-16.8c0.9-4.4,2-8.7,3.5-13c0.3-0.8,0.6-1.7,0.9-2.5c-1.3,3-1.4,3.2-0.3,0.8
			c1.1-2.1,2.2-4.3,3.4-6.4c6.2-10.9,3-26.7-8.6-32.8c-5.6-2.9-12.3-4.4-18.5-2.4c-6.3,2.1-10.3,5.8-14.3,11
			c-7.5,9.8-15,19.7-22.4,29.5c13.8,8.1,27.6,16.2,41.4,24.2c7.7-16.9,15.5-33.7,23.2-50.6c5-11,3.9-23.2-6.2-31
			c-9.3-7.2-23.1-6.7-31.5,1.9c-20.3,20.7-40.5,41.4-60.8,62.1c13.4,7.8,26.7,15.6,40.1,23.4c15.6-41.4,31.2-82.8,46.8-124.2
			c3.6-9.5-2.3-22.5-11-27.1c-10.3-5.4-20.3-3.1-29.1,3.8c-55.1,42.9-92.2,103.5-127.5,162.7c13.8,8.1,27.6,16.2,41.4,24.2
			c29.3-65.7,58.6-131.4,87.8-197.2c4.9-11.1,4-23.1-6.2-31c-9.6-7.4-22.6-6.3-31.5,1.9C790.1,277.6,754.8,342,726,407.9
			c-8.6,19.7-16.8,39.5-24.9,59.4c15.7,2.1,31.4,4.3,47.1,6.4c-0.1-4.2,0-8.5,0.3-12.7c0.1-1.8,0.3-3.6,0.5-5.4c0.5-5,0.1,0.9-0.2,1
			c0.3-0.2,0.5-3.1,0.6-3.6c1.5-8.4,3.6-16.7,6.2-24.8c1.3-4.1,2.7-8.2,4.2-12.2c0.8-2,1.5-4,2.3-6.1c0.3-0.9,0.7-1.7,1-2.6
			c0.3-0.6,2.4-5.5,0.9-2.3c-1.3,2.8,0-0.1,0.2-0.6c0.5-1.1,1-2.3,1.5-3.4c0.7-1.7,1.5-3.4,2.3-5.1c1.9-4.2,3.8-8.5,5.8-12.7
			c15.7-34.1,31.5-68.2,47.2-102.3c8.9-19.3,17.9-38.7,26.8-58c2.8-6,4.2-11.9,2.4-18.5c-1.5-5.6-5.8-11.6-11-14.3
			c-12.5-6.6-24.8-2.2-32.8,8.6c-47.3,64.1-85,134.9-112.2,209.7c-7.5,20.6-14,41.4-19.8,62.5c15.7,2.1,31.4,4.3,47.1,6.4
			c0-12.8,0.9-25.5,2.4-38.2c0.7-5.8-0.6,4.1,0,0.4c0.2-1.4,0.4-2.9,0.6-4.3c0.4-2.9,0.9-5.7,1.5-8.5c1.1-6.3,2.5-12.5,4-18.7
			c3-12.4,6.6-24.7,10.7-36.8c1.9-5.5,3.9-11.1,6-16.5c1.1-2.7,2.1-5.5,3.2-8.2c0.7-1.6,1.3-3.3,2-4.9c2.1-5-1.7,3.8,0.3-0.8
			c20.6-47.3,46.8-91.7,74.3-135.2c16.4-25.9,33.4-52.1,41.2-82.1c2.6-9.9-1.6-22.1-11-27.1c-9.4-5-21.4-4.1-29.1,3.8
			c-44.2,45.2-83.9,95-117.9,148.3c-33.6,52.6-61.4,108.8-83.3,167.2c-12,32-22,64.7-29.9,97.9c15.7,2.1,31.4,4.3,47.1,6.4
			c0.3-5.2,0.7-10.3,1.2-15.5c0.3-2.8,0.8-5.7,1-8.5c-0.3,5.7-0.4,2.7-0.2,1.3c0.3-1.7,0.5-3.4,0.8-5.1c1.7-10.7,3.9-21.4,6.4-32
			c5.2-21.3,11.9-42.2,19.5-62.7c3.8-10.4,7.9-20.7,12.1-30.9c1.1-2.7,2.2-5.4,3.4-8.1c-0.3,0.6-2.1,4.9-0.4,0.9
			c0.5-1.1,0.9-2.2,1.4-3.2c2.3-5.4,4.7-10.8,7-16.2c9-20.5,18.3-40.9,27.3-61.4c10.7-24.4,21.1-49,30.3-74.1
			c3.5-9.5-2.2-22.5-11-27.1c-9.5-5-21.3-4-29.1,3.8c-73.7,73.4-130.8,163-165,261.3c-9.1,26.2-16.5,53.1-22.1,80.3
			c15.4,0,30.9,0,46.3,0c-0.6-2-2.6-6.7-2.2-8.8c-0.1,0.4,0.4,5.8,0.2,1c-0.1-1.5-0.2-3-0.2-4.5c-0.2-5.8,0.4-11.5,0.9-17.3
			c0.6-6-0.6,3.8,0,0c0.2-1.5,0.5-3,0.7-4.5c0.4-2.7,0.9-5.5,1.3-8.2c1-6.1,2.2-12.1,3.4-18.2c4.7-22.9,10.6-45.6,17.5-68
			c7-22.8,15.1-45.3,23.7-67.5c4.3-11,8.8-22,13.3-32.9c0.4-1,1.8-4.3-0.2,0.6c0.5-1.2,1-2.3,1.5-3.4c1.2-2.9,2.5-5.7,3.7-8.6
			c2.5-5.7,5-11.5,7.5-17.2c10.9-24.6,22.1-49,33.4-73.4c5.1-11,3.9-23.2-6.2-31c-9.2-7.1-23.2-6.8-31.5,1.9
			C571.7,233,518.3,316.4,483.3,407.8c-9.4,24.5-17.3,49.6-23.7,75c15.7,2.1,31.4,4.3,47.1,6.4c0.4-5.9,0.9-11.9,1.6-17.8
			c0.2-1.6,0.4-3.1,0.6-4.7c0.3-2.4-0.8-2.4-0.1,0.8c-0.6-2.7,1.1-7.5,1.6-10.2c2-11.8,4.5-23.4,7.4-35
			c5.9-23.5,13.5-46.5,22.1-69.2c2-5.2,4-10.5,6.1-15.7c1.2-2.9,2.3-5.8,3.6-8.7c-0.3,0.7-2,4.6-0.2,0.6c0.7-1.7,1.5-3.4,2.2-5.2
			c4.7-10.9,9.7-21.7,15-32.4c10.5-21.3,22.2-41.9,34.1-62.5c7-12.2,13.5-24.6,18.9-37.6c5.5-13.3,8.7-26.6,10.3-40.9
			c1-9.3-6.9-18.6-14.8-21.9c-9.1-3.8-19-1.6-26.2,5c-71,64.6-126.7,144.7-162.6,233.7c-9.6,23.8-17.6,48.2-23.9,73
			c15.4,0,30.9,0,46.3,0c-1.6-4.5-3-9.1-3.9-13.7c-0.2-1.2-0.4-2.3-0.6-3.5c-0.9-4.6,0.3,0.7,0.1,1.2c0.8-1.9-0.6-6.6-0.6-8.7
			c-0.1-4.7,0-9.4,0.4-14.1c0.1-1.2,0.2-2.4,0.4-3.5c0.2-2-0.6-3.3-0.1,1.1c-0.2-2.3,1-5.7,1.4-8c2.1-10.2,5.1-20.1,8.5-29.9
			c1.7-4.7,3.4-9.3,5.3-13.9c0.5-1.2,0.9-2.3,1.4-3.4c0.3-0.7,1.9-4.4,0.6-1.4c-1.3,3,0.3-0.7,0.6-1.4c0.6-1.4,1.2-2.8,1.8-4.2
			c17.7-40.4,36.1-80.4,54.2-120.6c10.3-23,20.7-45.9,31-68.9c5-11,3.9-23.1-6.2-31c-9.5-7.3-22.8-6.5-31.5,1.9
			c-69.9,67.5-123.1,152.1-152.5,244.8c-7.9,25.1-14,50.7-18.1,76.7c15.7,2.1,31.4,4.3,47.1,6.4c0.5-10.9,1.4-21.7,2.6-32.5
			c0.2-1.5,0.4-3,0.6-4.5c0.5-3.8-0.9,6,0,0.1c0.4-2.4,0.7-4.8,1.1-7.2c0.9-5.7,1.9-11.3,3-16.9c4.1-21.4,9.7-42.5,16.2-63.3
			c6.7-21.3,14.3-42.3,22.7-63c2-4.9,4-9.7,6-14.5c1.5-3.5-2.3,5.3,0.1-0.2c0.5-1.1,1-2.3,1.5-3.4c1.2-2.8,2.4-5.7,3.7-8.5
			c4.5-10.2,9-20.3,13.7-30.4c10.6-23,21.7-45.8,32.8-68.5c5.3-10.9,3.7-23.3-6.2-31c-8.6-6.7-24-7.4-31.5,1.9
			c-68.2,84.2-125.3,178.6-157,282.8c-8.5,28-15,56.6-19.3,85.6c15.7,2.1,31.4,4.3,47.1,6.4c0.4-3.7,0.8-7.5,1.3-11.2
			c0.2-1.7,0.4-3.4,0.6-5.2c0.1-0.9,0.6-4.7,0.1-1.1c-0.5,3.6,0.1-0.4,0.2-1.1c1.1-7.7,2.3-15.5,3.6-23.2c2.6-15.4,5.7-30.8,9.3-46
			c7-30.3,15.9-60.2,26.4-89.5c2.7-7.4,5.4-14.8,8.3-22.1c1.4-3.5,2.8-7.1,4.2-10.6c0.8-1.9,1.6-3.8,2.3-5.7
			c0.2-0.5,1.4-3.3,0.1-0.4c-1.3,3.1,0.3-0.6,0.5-1.2c6.2-14.5,12.9-28.9,19.9-43.1c14.1-28.2,29.7-55.6,46.9-82
			c21.1-32.4,44.6-63.1,68.2-93.8c3.4-4.4,4.1-13.4,2.4-18.5c-1.6-5.1-4.4-9.2-8.6-12.5c-9.8-7.6-22.4-6.1-31.5,1.9
			C425.2,61,377.1,114.2,335.6,172.2c-41,57.3-74.6,119.4-100.7,184.9c-14.1,35.4-25.7,71.9-34.7,109c15.7,2.1,31.4,4.3,47.1,6.4
			c0.2-1.5,0.4-2.9,0.6-4.4c0.5-3.8-0.9,6.1,0,0.2c0.3-2.3,0.7-4.7,1-7c0.8-5.6,1.7-11.1,2.7-16.7c1.8-10.8,3.9-21.6,6.2-32.4
			c4.6-21.5,10-42.9,16.3-64c6.2-20.9,13.3-41.5,21.1-61.9c1.9-5,3.9-10,6-15c1-2.5,2-5,3.1-7.5c-0.3,0.7-2,4.8-0.3,0.8
			c0.7-1.7,1.4-3.3,2.1-5c4.3-9.9,8.8-19.7,13.5-29.5c11-22.8,23-45.1,36-66.9c6.1-10.3,3.1-23.8-6.2-31c-9.8-7.6-22.4-6.1-31.5,1.9
			C261.6,183.4,215,245.2,184.4,313.7c-9,20.1-16.9,40.7-23.3,61.8c15.4,4.3,30.9,8.5,46.3,12.8c10.7-40.3,22.2-80.5,36.2-119.9
			c3.6-10.1,7.3-20,11.2-30c1.8-4.6,3.7-9.1,5.5-13.6c1.3-3.1-1.7,4-0.4,1c0.6-1.3,1.1-2.6,1.7-4c1.1-2.6,2.3-5.3,3.5-7.9
			c8.5-19,17.8-37.5,28.1-55.6c11.8-20.7,25-40.6,39.6-59.5c3.4-4.4,4.1-13.4,2.4-18.5c-1.6-5.1-4.4-9.2-8.6-12.5
			c-10.1-7.8-22-5.7-31.5,1.9c-77.6,61.6-138,143.4-174.1,235.6c-9.5,24.4-17.1,49.5-22.7,75c15.4,4.3,30.9,8.5,46.3,12.8
			c5.8-42.6,15.4-84.7,28.8-125.5c3.3-10,6.8-19.9,10.5-29.7c1.9-4.9,3.8-9.8,5.7-14.7c1-2.4,2-4.9,3-7.3c0.3-0.8,1.8-4.3,0.5-1.2
			c-1.4,3.4,0.9-2.1,1.2-2.8c8.5-19.7,17.9-39,28.1-57.9c11.8-21.8,24.8-43.1,38.7-63.6c5.7-8.4,3.7-22.3-3.8-29.1
			c-8.5-7.8-18.9-8.3-29.1-3.8c-18.9,8.4-33.6,23.8-46.3,39.7c-14.1,17.5-27.6,35.4-40.5,53.8c-24.1,34.2-45.9,70.1-65.2,107.2
			c-11,21.1-21.1,42.5-30.5,64.4c14.9,4,29.8,8.1,44.7,12.1c0.5-7.4,0.5-15.6,2.2-22.8c-0.1,1-0.3,1.9-0.4,2.9
			c0.2-1.2,0.3-2.3,0.5-3.5c0.3-1.7,0.5-3.5,0.8-5.2c0.6-3.5,1.2-7,1.8-10.4c2.8-14.5,6.4-28.8,10.8-42.9c2.1-6.8,4.4-13.5,6.9-20.2
			c1.4-3.6,2.8-7.2,4.2-10.8c0.3-0.8,0.7-1.6,1-2.5c-1.2,2.7-1.4,3.3-0.7,1.6c0.8-1.9,1.7-3.8,2.5-5.7c6.1-13.6,13.1-26.9,20.7-39.7
			c6.1-10.3,3.1-23.8-6.2-31c-8.9-6.9-23.6-7.2-31.5,1.9C66,189,34.9,236.6,12.3,288.4c-2.7,6.1-4.3,11.8-2.4,18.5
			c1.5,5.6,5.8,11.6,11,14.3C31.3,326.7,48.3,324.9,53.7,312.6L53.7,312.6z"/>
	</g>
</g>
<g>
	<g>
		<path fill="#1B1464" d="M300.3,272.2c-15.4,47.9-30.8,95.9-41.6,145.1c-2.7,12.2,3.7,26.5,16.8,29.5c12.1,2.8,26.7-3.6,29.5-16.8
			c10.7-49.2,26.1-97.2,41.6-145.1c3.9-12-4.5-26.7-16.8-29.5C316.7,252.5,304.4,259.4,300.3,272.2L300.3,272.2z"/>
	</g>
</g>
<g>
	<g>
		<path fill="#1B1464" d="M479.1,303.3c-1.7,9.7-3.3,19.4-5.7,29c-1.2,4.8-2.5,9.5-4.1,14.1c-0.4,1.1-3,8.9-0.9,2.8
			c-0.8,2.3-2.1,4.6-3.2,6.7c-5,10.1-9.9,20.3-13.5,31c-3.6,10.8-5.5,21.8-6.9,33.1c-0.7,5.6,3.2,13.2,7,17c4.2,4.2,11,7.3,17,7
			c6.2-0.3,12.6-2.3,17-7c4.6-5,6.1-10.3,7-17c-0.9,6.8,0.3-1.4,0.6-2.7c0.5-2.4,1-4.8,1.6-7.1c1.2-4.7,2.6-9.4,4.3-14
			c0.5-1.3,2.5-8.8,1-2.7c0.4-1.7,1.6-3.5,2.3-5c2.2-4.5,4.5-8.9,6.5-13.4c8.6-19,12.9-38.6,16.4-59c1.1-6.5,1-12.6-2.4-18.5
			c-2.9-5-8.6-9.7-14.3-11C497,283.9,481.3,290.1,479.1,303.3L479.1,303.3z"/>
	</g>
</g>
<g>
	<g>
		<path fill="#1B1464" d="M540.7,344.3c-17,38.2-30.6,77.6-39.8,118.4c-2.8,12.2,3.7,26.6,16.8,29.5c12.2,2.8,26.5-3.7,29.5-16.8
			c4.3-19,9.5-37.8,15.6-56.3c3-9,6.1-17.8,9.5-26.7c1.8-4.7,3.7-9.4,5.6-14c0.5-1.2,1-2.3,1.4-3.5c-1.2,2.8-1.3,3-0.2,0.5
			c1-2.3,2-4.6,3-6.9c2.7-6.1,4.3-11.8,2.4-18.5c-1.5-5.6-5.8-11.6-11-14.3C563.1,330.2,546.2,332.1,540.7,344.3L540.7,344.3z"/>
	</g>
</g>
<g>
	<g>
		<path fill="#1B1464" d="M600.9,353.6c-7.4,18-14.8,36.1-22.2,54.1c-3.5,8.6-7.2,17.2-10.5,26c-3.9,10.4-6.1,20.7-7.3,31.6
			c-0.7,5.7,3.2,13.1,7,17c4.2,4.2,11,7.3,17,7c14.2-0.6,22.5-10.6,24-24c-0.8,6.6,0.4-1.5,0.7-2.8c0.4-1.8,0.9-3.6,1.4-5.4
			c1.2-4.2,2.7-8.3,4.2-12.4c3.3-8.8,7-17.4,10.6-26c7.2-17.4,14.3-34.9,21.5-52.3c2.2-5.4,0.4-13.7-2.4-18.5
			c-2.9-5-8.6-9.7-14.3-11c-6.1-1.4-13-1.1-18.5,2.4C606.4,342.8,603.5,347.5,600.9,353.6L600.9,353.6z"/>
	</g>
</g>
<g>
	<g>
		<path fill="#1B1464" d="M178.1,244.1c-4.5,12.5-5.5,25.7-7.9,38.7c-1.2,6.3-2.8,12.4-5.2,18.4c-3.1,7.9-5,14.9-6.1,23.4
			c-0.7,5.6,3.2,13.1,7,17c4.2,4.2,11,7.3,17,7c6.2-0.3,12.6-2.3,17-7c4.6-5,6.2-10.3,7-17c-0.9,6.6,0.1,1.1,0.5-0.3
			c0.4-1.4,0.9-2.7,1.4-4c1.1-2.9,2.4-5.8,3.5-8.8c2.1-5.8,3.5-11.7,4.6-17.8c2.2-12.4,3.2-25,7.5-36.9c4.3-11.8-4.8-26.8-16.8-29.5
			C194.1,224.3,182.7,231.4,178.1,244.1L178.1,244.1z"/>
	</g>
</g>
<g>
	<g>
		<path fill="#1B1464" d="M660.9,387.6c-5.7,17.8-11.7,35.5-17.9,53.1c-4.2,11.9,4.7,26.8,16.8,29.5c13.4,3.1,25-4.1,29.5-16.8
			c6.2-17.6,12.2-35.3,17.9-53.1c3.8-12-4.5-26.7-16.8-29.5C677.3,367.8,665,374.8,660.9,387.6L660.9,387.6z"/>
	</g>
</g>
<g>
	<g>
		<path fill="#1B1464" d="M665.7,272.4c0.7-2.5,1.5-8.8,3.5-10.7c-1.3,3-1.6,3.7-0.8,2c0.3-0.7,0.7-1.5,1.1-2.2
			c0.8-1.7,1.8-3.3,2.7-4.9c1-1.6,2-3.2,3-4.7c0.3-0.4,0.6-0.9,0.9-1.3c1.5-2.1,1.3-1.7-0.8,1c0-2,6.5-7,7.7-8.2
			c9.2-8.6,9.3-25.4,0-33.9c-9.9-9-24.1-9.2-33.9,0c-14.4,13.4-24.8,31.1-29.7,50.2c-3.2,12.1,4,26.6,16.8,29.5
			C648.7,292.1,662.3,285.4,665.7,272.4L665.7,272.4z"/>
	</g>
</g>
<g>
	<g>
		<path fill="#1B1464" d="M540.5,217.2c3.4-5.2,6.8-10.4,10.5-15.3c0.7-1,1.4-2.1,2.2-3c-3.5,3.9-0.5,0.7,0.3-0.3
			c2.1-2.7,4.3-5.3,6.6-7.8c8.2-9.5,10-24.7,0-33.9c-9-8.3-25.2-10.1-33.9,0c-9.9,11.4-19,23.5-27.1,36.1c-6.8,10.6-2.5,27,8.6,32.8
			C519.6,232.1,533.3,228.5,540.5,217.2L540.5,217.2z"/>
	</g>
</g>
<g>
	<g>
		<path fill="#1B1464" d="M307.6,171.8c1.2-1.9,2.3-3.7,3.6-5.5c0.6-0.9,1.3-1.8,1.9-2.7c2.5-3.6-2.2,2.5-0.3,0.3
			c3-3.6,6-7.1,9.3-10.4c8.8-9,9.6-25.1,0-33.9c-9.5-8.7-24.5-9.6-33.9,0c-8.3,8.5-15.8,18-22,28c-6.7,10.7-2.6,26.9,8.6,32.8
			C286.5,186.6,300.4,183.2,307.6,171.8L307.6,171.8z"/>
	</g>
</g>
</svg>
